<svg enable-background="new 0 0 220 30" viewBox="0 0 220 30" xmlns="http://www.w3.org/2000/svg"><path d="m146.8 0h73.2v30h-73.2z" fill="#fff"/><path d="m0 0h146.7v30h-146.7z"/><g fill="#fff"><path d="m4.5 5.5h7.4v3.4h-3v3.2h2.8v3.2h-2.8v3.7h3.2v3.4h-7.6z"/><path d="m22.1 13h-3.8v-.8c0-.4 0-.8-.1-1.2-.1-.2-.3-.3-.6-.3-.2 0-.4.1-.5.2-.1.3-.1.6-.1.8 0 .3 0 .6.1.9s.3.5.5.7c.6.4 1.2.7 1.8 1 .9.4 1.8 1 2.4 1.7.4.7.6 1.5.6 2.3 0 .9-.1 1.8-.4 2.6-.3.6-.8 1.1-1.5 1.3-.8.3-1.6.5-2.5.5s-1.9-.1-2.8-.5c-.7-.3-1.2-.7-1.6-1.4-.3-.8-.5-1.7-.4-2.6v-.7h3.8v.9c0 .5 0 1 .1 1.5.1.2.3.4.6.3.2 0 .5-.1.6-.2.1-.3.2-.6.2-1 .1-.4 0-.9-.2-1.2-.8-.6-1.6-1.1-2.5-1.5s-1.7-1.1-2.3-1.9c-.3-.6-.4-1.3-.4-2-.1-.8.1-1.7.4-2.5.3-.6.9-1 1.5-1.2.8-.3 1.6-.4 2.5-.4.8 0 1.6.1 2.4.4.6.2 1.1.5 1.5.9.3.3.5.7.6 1.1.1.5.1 1 .1 1.5z"/><path d="m27.9 8.6-.1 1.2c.3-.5.8-.8 1.2-1.1.5-.2 1-.4 1.5-.4.6 0 1.2.2 1.7.5.4.3.8.7.9 1.2.1.8.2 1.6.2 2.4v5.9c0 .9 0 1.8-.2 2.7-.1.5-.5 1-.9 1.3-.5.3-1.1.5-1.7.5-.5 0-1-.1-1.5-.4s-.9-.6-1.2-1.1v3.2h-4.2v-15.9zm1.2 4c0-.5 0-1-.1-1.6-.1-.2-.2-.3-.5-.3-.2 0-.5.1-.5.3-.1.5-.1 1-.1 1.5v5.8c0 .5 0 1.1.1 1.6.1.2.3.3.5.3.3 0 .4-.1.5-.3.1-.5.1-.9.1-1.4z"/><path d="m38.6 14h-4v-1c0-.8.1-1.7.4-2.5.3-.7.8-1.2 1.5-1.5.9-.5 1.9-.7 2.9-.7 1.1-.1 2.3.2 3.2.8.7.4 1.1 1.1 1.3 1.9.2 1.5.3 3 .2 4.6v7h-4.1v-1.2c-.2.5-.6.8-1 1.1s-1 .4-1.5.4c-.7 0-1.4-.2-2-.6s-.9-1.3-.9-2.7v-1.1c-.1-.7.1-1.5.5-2.1.7-.6 1.5-1.1 2.4-1.3.8-.2 1.6-.6 2.2-1.1.1-.4.2-.8.1-1.2 0-.5 0-1-.2-1.4-.1-.2-.3-.3-.5-.3-.3 0-.5.1-.5.3-.1.5-.1 1-.1 1.4v1.2zm1.3 1.9c-.5.3-.9.7-1.2 1.2-.1.5-.2 1-.2 1.4 0 .5 0 .9.1 1.4.1.2.3.3.6.3.2 0 .4-.1.5-.2.1-.4.2-.9.1-1.3z"/><path d="m55 13.8h-4v-1.6c0-.4 0-.8-.1-1.1-.1-.2-.3-.3-.5-.3s-.4.1-.5.3c-.1.4-.2.8-.1 1.2v6.6c0 .4 0 .8.2 1.1.1.2.3.4.6.4s.5-.1.6-.4c.1-.5.2-1 .2-1.5v-1.7h3.6c0 .8 0 1.7-.1 2.5-.1.6-.3 1.2-.7 1.7-.4.6-.9 1-1.5 1.3-.7.3-1.6.5-2.4.4-1 0-2-.2-2.8-.6-.7-.4-1.2-1-1.5-1.7-.3-1-.5-2.1-.4-3.1v-4c0-.9.1-1.8.4-2.7.3-.7.9-1.3 1.5-1.6.9-.5 1.8-.7 2.8-.7s2 .2 2.8.7c.7.4 1.3 1 1.6 1.8.2 1 .3 2 .3 3z"/><path d="m65.8 15.8h-5.5v3c0 .4 0 .8.1 1.2.1.2.3.3.5.3.3 0 .5-.1.6-.4.1-.5.2-.9.2-1.4v-1.8h4v1c0 .7 0 1.3-.2 2-.1.5-.4 1-.8 1.5s-.9.9-1.5 1.2c-.7.3-1.5.4-2.3.4s-1.6-.1-2.4-.4c-.6-.2-1.2-.6-1.6-1.1-.4-.4-.6-.9-.8-1.5-.2-.8-.2-1.6-.2-2.4v-4.1c0-1 .1-2 .5-2.9.3-.7.9-1.3 1.6-1.6.8-.4 1.7-.6 2.6-.6 1 0 2 .2 2.9.7.7.4 1.3 1 1.6 1.8.4 1 .5 2.1.5 3.1v2zm-4.2-2.3v-1c0-.5 0-.9-.1-1.4-.1-.2-.3-.3-.5-.3-.3 0-.5.1-.5.3-.1.5-.1 1-.1 1.4v1z"/><path d="m75.2 8.6-.1 1.3c.3-.5.7-.9 1.2-1.2 1.5-.8 3.4-.3 4.2 1.2.3-.5.7-.9 1.2-1.2s1-.4 1.5-.4c.6 0 1.3.2 1.8.5.4.3.8.8.9 1.3.2.8.2 1.6.2 2.5v9.9h-4.1v-9.1c0-.7 0-1.5-.1-2.2-.1-.3-.3-.4-.6-.4s-.5.2-.6.4c-.1.7-.2 1.5-.1 2.2v9.1h-4.1v-8.9c0-.8 0-1.6-.1-2.5 0-.3-.3-.4-.6-.4-.2 0-.4.1-.5.2s-.2.3-.2.5v1.3 9.7h-4.1v-13.8z"/><path d="m97.2 13.5v3.4c0 .9 0 1.8-.2 2.8-.1.6-.4 1.2-.8 1.6-.4.5-1 .9-1.6 1.1-.7.3-1.5.4-2.2.4-.8 0-1.6-.1-2.4-.3-.6-.2-1.1-.5-1.5-.9s-.6-1-.8-1.5c-.2-.9-.3-1.8-.2-2.7v-3.6c0-1 .1-2.1.4-3 .3-.7.8-1.4 1.5-1.8.9-.5 1.8-.7 2.8-.7.8 0 1.7.1 2.5.4 1.1.4 2 1.4 2.3 2.5.2.8.2 1.5.2 2.3zm-4.2-1.1c0-.5 0-.9-.1-1.3-.1-.2-.3-.3-.5-.3s-.4.1-.5.3c-.1.4-.2.9-.1 1.3v6.3c0 .4 0 .9.1 1.3.1.2.3.3.5.3s.4-.1.5-.3c.1-.4.1-.8.1-1.2z"/><path d="m102.9 8.6-.1 1.3c.3-.5.7-.9 1.1-1.2.5-.3 1-.4 1.5-.4.6 0 1.3.2 1.8.5.4.3.8.8.9 1.3.2.9.2 1.7.2 2.6v9.8h-4.2v-9.7c0-.6 0-1.2-.1-1.8-.1-.2-.2-.3-.5-.3s-.5.1-.6.4c-.1.6-.1 1.3-.1 1.9v9.4h-4.2v-13.8z"/><path d="m119.5 5.5v17h-4.2v-1c-.4.4-.8.7-1.3.9-.4.2-.9.3-1.4.3-.6 0-1.2-.2-1.7-.5-.4-.3-.8-.7-.9-1.2-.2-.7-.2-1.5-.2-2.2v-6.5c0-.8 0-1.5.2-2.3.2-.5.5-.9.9-1.2.5-.3 1.1-.5 1.8-.5 1 0 2 .4 2.6 1.1v-3.9zm-4.2 6.6c0-.3 0-.7-.1-1-.1-.2-.3-.3-.5-.3s-.4.1-.5.2c-.1.3-.2.7-.1 1.1v6.8c0 .4 0 .8.1 1.1.1.2.3.3.5.3s.4-.1.5-.3c.1-.5.2-1 .1-1.5z"/><path d="m125.4 5.5v2.2h-4.4v-2.2zm0 3.1v13.9h-4.4v-13.9z"/><path d="m130.7 14h-4v-1c0-.8.1-1.7.4-2.5.3-.7.8-1.2 1.5-1.5 2-.9 4.2-.9 6.2.1.7.4 1.1 1.1 1.3 1.9.2 1.5.3 3 .2 4.6v7h-4.1v-1.2c-.2.5-.6.8-1 1.1s-1 .4-1.5.4c-.7 0-1.4-.2-2-.6s-.9-1.3-.9-2.7v-1.1c-.1-.7.1-1.5.5-2.1.7-.6 1.5-1.1 2.4-1.3.8-.2 1.6-.6 2.2-1.1.1-.4.2-.8.1-1.2 0-.5 0-1-.2-1.4-.1-.2-.3-.3-.5-.3-.3 0-.5.1-.5.3-.1.5-.1 1-.1 1.4zm1.4 1.9c-.5.3-.9.7-1.2 1.2-.1.5-.2 1-.2 1.4 0 .5 0 .9.1 1.4.1.2.3.3.6.3.2 0 .4-.1.5-.2.1-.4.2-.9.1-1.3z"/><path d="m142.2 5.5v17h-4.4v-17z"/></g><path d="m159.6 21.6c-.4.3-.8.5-1.1.7s-.6.3-.9.5c-.2.1-.5.2-.7.3s-.4.1-.7.1-.5-.2-.6-.4c-.2-.3-.3-.7-.3-1.2 0-.4 0-.7.1-1.1.1-.5.2-1.1.3-1.9.1-.7.2-1.5.4-2.4.1-.9.3-1.7.4-2.6s.3-1.8.4-2.7.3-1.7.4-2.5.2-1.4.3-2c.1-.4.1-.9.1-1.3 0-.2 0-.3-.1-.5 0-.1-.1-.2-.1-.3-.1-.1-.1-.1-.2-.1s-.2 0-.2 0c-.1 0-.2 0-.3.1-.2 0-.3.1-.4.1-.2.1-.4.1-.6.2l-.2-.5c.4-.2.7-.3 1.1-.5s.7-.3 1-.4.6-.2.8-.3.4-.1.5-.1c.2 0 .4.1.6.2.2.2.2.5.2.8 0 .5 0 .9-.1 1.4-.1.6-.2 1.3-.3 2s-.2 1.6-.4 2.5c-.1.9-.3 1.8-.4 2.7s-.3 1.8-.4 2.7-.3 1.7-.4 2.4-.2 1.4-.3 2c-.1.4-.1.9-.1 1.3 0 .2 0 .4.1.6.1.1.2.2.3.2.2 0 .5 0 .7-.1.3-.1.7-.2 1-.3z"/><path d="m165.1 5.4c0 .5-.1.9-.3 1.4s-.4.9-.7 1.3-.6.8-1 1.2c-.3.3-.7.6-1.1.9l-.5-.4c.2-.2.3-.4.5-.6s.3-.5.5-.7c.2-.3.3-.5.4-.8.1-.2.1-.5.2-.7 0-.3-.1-.6-.3-.8-.3-.2-.6-.3-1-.3l-.1-.6c.2-.1.3-.3.5-.4s.5-.3.8-.4.5-.2.8-.3c.2-.2.4-.2.6-.2.2.1.4.3.6.6.1.2.2.5.1.8z"/><path d="m167 16.8-1.9 4.3c-.1.2-.1.4.1.5h.1c.4.2.9.3 1.4.3l-.1.6h-4.9l.1-.6c.4-.1.9-.2 1.3-.3.3-.1.5-.3.7-.6l6.3-14.5c.1-.1.3-.2.4-.3.2-.1.3-.2.5-.3l.5-.3c.2-.1.3-.2.4-.2l2.8 15.6c0 .1 0 .2.1.3s.1.2.2.2c.1.1.3.1.4.2.2.1.5.1.7.1l-.1.6h-5l.1-.6c.5 0 .9-.1 1.3-.3.2-.1.4-.4.3-.6l-.8-4.3zm4.8-1.2-1.2-7.1-3.1 7.1z"/><path d="m183.8 21c-.4.3-.8.6-1.3.9-.4.2-.8.5-1.2.6-.3.2-.7.3-1 .4-.2.1-.5.1-.7.1s-.4-.1-.6-.2-.4-.3-.5-.5c-.2-.3-.3-.5-.4-.8s-.1-.7-.1-1c0-.2 0-.3 0-.5s0-.3 0-.5 0-.4.1-.6.1-.4.1-.7l1-6.3h-1.9l-.2-.4 1.3-.8h.9l.1-.5c.1-.4.1-.6.2-.9 0-.2.1-.4.2-.6.1-.1.1-.3.2-.4s.2-.2.3-.3l1.3-.9.4.3c-.1.1-.2.3-.2.4-.1.2-.1.4-.2.7s-.2.7-.3 1.3l-.1.7h3.2l.3.4c-.1.1-.2.3-.4.4s-.3.3-.5.4-.3.2-.5.4c-.1.1-.2.2-.3.2 0-.1-.1-.2-.2-.3s-.2-.1-.4-.2c-.2 0-.4-.1-.6-.1s-.5 0-.8 0l-.9 5.9c0 .2-.1.3-.1.5s0 .4-.1.5 0 .3 0 .5 0 .3 0 .3c0 .4.1.8.3 1.2.1.2.4.4.7.4.4 0 .7-.1 1.1-.2.6-.2 1.1-.4 1.6-.6z"/><path d="m189.7 21.6c-.4.3-.8.5-1.1.7s-.6.3-.9.5c-.2.1-.5.2-.7.3s-.4.1-.7.1-.5-.2-.6-.4c-.2-.3-.3-.7-.3-1.2 0-.4 0-.7.1-1.1.1-.5.2-1.1.3-1.9.1-.7.2-1.5.4-2.4.1-.9.3-1.7.4-2.6s.3-1.8.4-2.7.3-1.7.4-2.5.2-1.4.3-2c.1-.4.1-.9.1-1.3 0-.2 0-.3-.1-.5 0-.1-.1-.2-.1-.3-.1-.1-.1-.1-.2-.1s-.2 0-.2 0c-.1 0-.2 0-.3.1-.2 0-.3.1-.4.1-.2.1-.4.1-.6.2l-.2-.5c.4-.2.7-.3 1.1-.5.4-.1.7-.3 1-.4s.6-.2.8-.3.4-.1.5-.1c.2 0 .4.1.6.2.2.2.2.5.2.8 0 .5 0 .9-.1 1.4-.1.6-.2 1.3-.3 2s-.2 1.6-.4 2.5c-.1.9-.3 1.8-.4 2.7s-.3 1.8-.4 2.7-.3 1.7-.4 2.4-.2 1.4-.3 2c-.1.4-.1.9-.1 1.3 0 .2 0 .4.1.6.1.1.2.2.3.2.2 0 .5 0 .7-.1.3-.1.7-.2 1-.3z"/><path d="m201.7 21.7c-.6.4-1.2.8-1.8 1.1-.3.2-.7.3-1.1.3-.2 0-.3-.1-.4-.2-.2-.2-.3-.4-.4-.6-.1-.4-.2-.8-.3-1.2-.1-.7-.1-1.4-.1-2-.2.4-.5.8-.8 1.3s-.7.9-1 1.3-.7.7-1.1 1c-.6.5-1.4.5-2 .2-.4-.2-.7-.5-.9-.8-.3-.4-.5-.9-.7-1.4-.2-.7-.3-1.4-.3-2.1s.1-1.3.2-2c.2-.7.4-1.3.7-1.9s.7-1.2 1.2-1.7 1-1 1.6-1.4c.2-.2.5-.3.8-.5.3-.1.6-.3.9-.4s.6-.2.9-.3.6-.1.8-.1.4 0 .5.1c.2 0 .3.1.5.2s.3.2.5.3c.1.1.3.2.4.3.2-.2.4-.3.6-.4s.5-.3.7-.4l.3.5c-.1.1-.3.2-.4.3s-.2.2-.3.3-.1.3-.2.5-.1.4-.2.7c-.1.6-.3 1.3-.4 1.9-.1.7-.2 1.3-.3 1.8-.1.6-.1 1.1-.2 1.5s-.1.8-.1.9v1.2c0 .3.1.5.1.8 0 .2.1.3.2.4s.2.1.3.1c.2 0 .4 0 .6-.1.3-.1.6-.2.9-.3zm-3.9-4.7c.1-.4.1-.8.2-1.2s.1-.8.2-1.2.1-.7.2-1.1.1-.6.1-.8c-.1-.1-.3-.2-.4-.3-.2-.1-.3-.2-.5-.3s-.4-.2-.6-.2c-.2-.1-.4-.1-.6-.1-.4 0-.8.1-1.1.3-.4.2-.7.5-1 .8s-.6.7-.8 1.1-.4.8-.6 1.3c-.2.4-.3.9-.4 1.3s-.1.8-.1 1.1c0 .5 0 1 .1 1.5.1.4.2.8.4 1.2.1.3.3.5.6.7.2.2.5.3.7.3.3 0 .6-.2.8-.4.3-.3.7-.7.9-1 .3-.5.7-.9 1-1.4.4-.6.7-1.1.9-1.6z"/><path d="m211.5 11.6c-.2.2-.3.4-.5.5s-.3.3-.5.4c-.1.1-.3.2-.4.3s-.2.1-.3.1-.3-.1-.4-.2c-.1-.2-.3-.3-.4-.5-.2-.2-.4-.3-.6-.5s-.5-.2-.7-.2-.5 0-.7.1-.4.2-.6.4-.3.4-.5.6c-.1.2-.2.5-.2.8 0 .4.2.7.4 1 .4.4.9.8 1.5 1 .4.2.7.4 1.1.6.3.2.7.5.9.7.3.3.5.6.7 1s.3.8.3 1.2c0 .6-.2 1.2-.5 1.7s-.7 1-1.2 1.4-1 .7-1.6.9c-.5.2-1.1.3-1.7.3-.4 0-.8-.1-1.2-.2s-.7-.3-1.1-.4c-.3-.2-.5-.4-.8-.6-.2-.2-.3-.4-.3-.6 0-.1.1-.3.2-.4.2-.4.5-.7.8-1 .1-.1.2-.2.4-.2.1 0 .1.1.2.2s.1.2.2.4.2.3.4.5c.1.2.3.4.5.5.2.2.5.3.7.4.3.1.7.2 1 .2s.6-.1.9-.2.5-.3.7-.5.4-.4.5-.7.2-.6.2-.8c0-.3-.1-.6-.2-.9s-.3-.5-.6-.7c-.2-.2-.5-.4-.8-.6s-.6-.4-.9-.5c-.4-.2-.8-.4-1.2-.6-.3-.2-.5-.4-.8-.7-.2-.2-.3-.5-.4-.7-.1-.3-.1-.5-.1-.8 0-.5.1-1 .4-1.5s.6-.8 1-1.2c.4-.3.9-.6 1.4-.8s1-.3 1.5-.3c.4 0 .8 0 1.1.2.3.1.5.2.8.4.2.1.4.3.6.4.4 0 .6.1.8.1z"/></svg>