<?xml version="1.0" encoding="utf-8"?>
<!-- Generator: Adobe Illustrator 22.0.1, SVG Export Plug-In . SVG Version: 6.00 Build 0)  -->
<svg version="1.1" id="Calque_1" xmlns="http://www.w3.org/2000/svg" xmlns:xlink="http://www.w3.org/1999/xlink" x="0px" y="0px"
	 viewBox="0 0 220 30" style="enable-background:new 0 0 220 30;" xml:space="preserve">
<style type="text/css">
	.st0{fill:#FFFFFF;}
</style>
<rect x="146.8" class="st0" width="73.2" height="30"/>
<rect width="146.7" height="30"/>
<g>
	<path class="st0" d="M4.5,5.5h7.4v3.4h-3v3.2h2.8v3.2H8.9v3.7h3.2v3.4H4.5V5.5z"/>
	<path class="st0" d="M22.1,13h-3.8v-0.8c0-0.4,0-0.8-0.1-1.2c-0.1-0.2-0.3-0.3-0.6-0.3c-0.2,0-0.4,0.1-0.5,0.2
		C17,11.2,17,11.5,17,11.7c0,0.3,0,0.6,0.1,0.9c0.1,0.3,0.3,0.5,0.5,0.7c0.6,0.4,1.2,0.7,1.8,1c0.9,0.4,1.8,1,2.4,1.7
		c0.4,0.7,0.6,1.5,0.6,2.3c0,0.9-0.1,1.8-0.4,2.6c-0.3,0.6-0.8,1.1-1.5,1.3c-0.8,0.3-1.6,0.5-2.5,0.5c-0.9,0-1.9-0.1-2.8-0.5
		c-0.7-0.3-1.2-0.7-1.6-1.4c-0.3-0.8-0.5-1.7-0.4-2.6v-0.7H17v0.9c0,0.5,0,1,0.1,1.5c0.1,0.2,0.3,0.4,0.6,0.3c0.2,0,0.5-0.1,0.6-0.2
		c0.1-0.3,0.2-0.6,0.2-1c0.1-0.4,0-0.9-0.2-1.2c-0.8-0.6-1.6-1.1-2.5-1.5c-0.9-0.4-1.7-1.1-2.3-1.9c-0.3-0.6-0.4-1.3-0.4-2
		c-0.1-0.8,0.1-1.7,0.4-2.5c0.3-0.6,0.9-1,1.5-1.2c0.8-0.3,1.6-0.4,2.5-0.4c0.8,0,1.6,0.1,2.4,0.4c0.6,0.2,1.1,0.5,1.5,0.9
		c0.3,0.3,0.5,0.7,0.6,1.1c0.1,0.5,0.1,1,0.1,1.5L22.1,13z"/>
	<path class="st0" d="M27.9,8.6l-0.1,1.2c0.3-0.5,0.8-0.8,1.2-1.1c0.5-0.2,1-0.4,1.5-0.4c0.6,0,1.2,0.2,1.7,0.5
		c0.4,0.3,0.8,0.7,0.9,1.2c0.1,0.8,0.2,1.6,0.2,2.4v5.9c0,0.9,0,1.8-0.2,2.7c-0.1,0.5-0.5,1-0.9,1.3c-0.5,0.3-1.1,0.5-1.7,0.5
		c-0.5,0-1-0.1-1.5-0.4c-0.5-0.3-0.9-0.6-1.2-1.1v3.2h-4.2V8.6H27.9z M29.1,12.6c0-0.5,0-1-0.1-1.6c-0.1-0.2-0.2-0.3-0.5-0.3
		c-0.2,0-0.5,0.1-0.5,0.3c-0.1,0.5-0.1,1-0.1,1.5v5.8c0,0.5,0,1.1,0.1,1.6c0.1,0.2,0.3,0.3,0.5,0.3c0.3,0,0.4-0.1,0.5-0.3
		c0.1-0.5,0.1-0.9,0.1-1.4L29.1,12.6z"/>
	<path class="st0" d="M38.6,14h-4V13c0-0.8,0.1-1.7,0.4-2.5c0.3-0.7,0.8-1.2,1.5-1.5c0.9-0.5,1.9-0.7,2.9-0.7
		c1.1-0.1,2.3,0.2,3.2,0.8c0.7,0.4,1.1,1.1,1.3,1.9c0.2,1.5,0.3,3,0.2,4.6v7H40v-1.2c-0.2,0.5-0.6,0.8-1,1.1c-0.4,0.3-1,0.4-1.5,0.4
		c-0.7,0-1.4-0.2-2-0.6c-0.6-0.4-0.9-1.3-0.9-2.7v-1.1c-0.1-0.7,0.1-1.5,0.5-2.1c0.7-0.6,1.5-1.1,2.4-1.3c0.8-0.2,1.6-0.6,2.2-1.1
		c0.1-0.4,0.2-0.8,0.1-1.2c0-0.5,0-1-0.2-1.4c-0.1-0.2-0.3-0.3-0.5-0.3c-0.3,0-0.5,0.1-0.5,0.3c-0.1,0.5-0.1,1-0.1,1.4V14z
		 M39.9,15.9c-0.5,0.3-0.9,0.7-1.2,1.2c-0.1,0.5-0.2,1-0.2,1.4c0,0.5,0,0.9,0.1,1.4c0.1,0.2,0.3,0.3,0.6,0.3c0.2,0,0.4-0.1,0.5-0.2
		c0.1-0.4,0.2-0.9,0.1-1.3L39.9,15.9z"/>
	<path class="st0" d="M55,13.8h-4v-1.6c0-0.4,0-0.8-0.1-1.1c-0.1-0.2-0.3-0.3-0.5-0.3c-0.2,0-0.4,0.1-0.5,0.3
		c-0.1,0.4-0.2,0.8-0.1,1.2v6.6c0,0.4,0,0.8,0.2,1.1c0.1,0.2,0.3,0.4,0.6,0.4c0.3,0,0.5-0.1,0.6-0.4c0.1-0.5,0.2-1,0.2-1.5v-1.7H55
		c0,0.8,0,1.7-0.1,2.5c-0.1,0.6-0.3,1.2-0.7,1.7c-0.4,0.6-0.9,1-1.5,1.3c-0.7,0.3-1.6,0.5-2.4,0.4c-1,0-2-0.2-2.8-0.6
		c-0.7-0.4-1.2-1-1.5-1.7c-0.3-1-0.5-2.1-0.4-3.1v-4c0-0.9,0.1-1.8,0.4-2.7c0.3-0.7,0.9-1.3,1.5-1.6c0.9-0.5,1.8-0.7,2.8-0.7
		c1,0,2,0.2,2.8,0.7c0.7,0.4,1.3,1,1.6,1.8C54.9,11.8,55,12.8,55,13.8z"/>
	<path class="st0" d="M65.8,15.8h-5.5v3c0,0.4,0,0.8,0.1,1.2c0.1,0.2,0.3,0.3,0.5,0.3c0.3,0,0.5-0.1,0.6-0.4
		c0.1-0.5,0.2-0.9,0.2-1.4v-1.8h4v1c0,0.7,0,1.3-0.2,2c-0.1,0.5-0.4,1-0.8,1.5c-0.4,0.5-0.9,0.9-1.5,1.2c-0.7,0.3-1.5,0.4-2.3,0.4
		c-0.8,0-1.6-0.1-2.4-0.4c-0.6-0.2-1.2-0.6-1.6-1.1c-0.4-0.4-0.6-0.9-0.8-1.5c-0.2-0.8-0.2-1.6-0.2-2.4v-4.1c0-1,0.1-2,0.5-2.9
		c0.3-0.7,0.9-1.3,1.6-1.6c0.8-0.4,1.7-0.6,2.6-0.6c1,0,2,0.2,2.9,0.7c0.7,0.4,1.3,1,1.6,1.8c0.4,1,0.5,2.1,0.5,3.1V15.8z
		 M61.6,13.5v-1c0-0.5,0-0.9-0.1-1.4c-0.1-0.2-0.3-0.3-0.5-0.3c-0.3,0-0.5,0.1-0.5,0.3c-0.1,0.5-0.1,1-0.1,1.4v1H61.6z"/>
	<path class="st0" d="M75.2,8.6l-0.1,1.3c0.3-0.5,0.7-0.9,1.2-1.2c1.5-0.8,3.4-0.3,4.2,1.2c0.3-0.5,0.7-0.9,1.2-1.2
		c0.5-0.3,1-0.4,1.5-0.4c0.6,0,1.3,0.2,1.8,0.5c0.4,0.3,0.8,0.8,0.9,1.3c0.2,0.8,0.2,1.6,0.2,2.5v9.9H82v-9.1c0-0.7,0-1.5-0.1-2.2
		c-0.1-0.3-0.3-0.4-0.6-0.4c-0.3,0-0.5,0.2-0.6,0.4c-0.1,0.7-0.2,1.5-0.1,2.2v9.1h-4.1v-8.9c0-0.8,0-1.6-0.1-2.5
		c0-0.3-0.3-0.4-0.6-0.4c-0.2,0-0.4,0.1-0.5,0.2c-0.1,0.1-0.2,0.3-0.2,0.5c0,0.2,0,0.6,0,1.3v9.7H71V8.6H75.2z"/>
	<path class="st0" d="M97.2,13.5v3.4c0,0.9,0,1.8-0.2,2.8c-0.1,0.6-0.4,1.2-0.8,1.6c-0.4,0.5-1,0.9-1.6,1.1
		c-0.7,0.3-1.5,0.4-2.2,0.4c-0.8,0-1.6-0.1-2.4-0.3c-0.6-0.2-1.1-0.5-1.5-0.9c-0.4-0.4-0.6-1-0.8-1.5c-0.2-0.9-0.3-1.8-0.2-2.7v-3.6
		c0-1,0.1-2.1,0.4-3c0.3-0.7,0.8-1.4,1.5-1.8c0.9-0.5,1.8-0.7,2.8-0.7c0.8,0,1.7,0.1,2.5,0.4c1.1,0.4,2,1.4,2.3,2.5
		C97.2,12,97.2,12.7,97.2,13.5z M93,12.4c0-0.5,0-0.9-0.1-1.3c-0.1-0.2-0.3-0.3-0.5-0.3c-0.2,0-0.4,0.1-0.5,0.3
		c-0.1,0.4-0.2,0.9-0.1,1.3v6.3c0,0.4,0,0.9,0.1,1.3c0.1,0.2,0.3,0.3,0.5,0.3c0.2,0,0.4-0.1,0.5-0.3c0.1-0.4,0.1-0.8,0.1-1.2
		L93,12.4z"/>
	<path class="st0" d="M102.9,8.6l-0.1,1.3c0.3-0.5,0.7-0.9,1.1-1.2c0.5-0.3,1-0.4,1.5-0.4c0.6,0,1.3,0.2,1.8,0.5
		c0.4,0.3,0.8,0.8,0.9,1.3c0.2,0.9,0.2,1.7,0.2,2.6v9.8h-4.2v-9.7c0-0.6,0-1.2-0.1-1.8c-0.1-0.2-0.2-0.3-0.5-0.3
		c-0.3,0-0.5,0.1-0.6,0.4c-0.1,0.6-0.1,1.3-0.1,1.9v9.4h-4.2V8.6H102.9z"/>
	<path class="st0" d="M119.5,5.5v17h-4.2v-1c-0.4,0.4-0.8,0.7-1.3,0.9c-0.4,0.2-0.9,0.3-1.4,0.3c-0.6,0-1.2-0.2-1.7-0.5
		c-0.4-0.3-0.8-0.7-0.9-1.2c-0.2-0.7-0.2-1.5-0.2-2.2v-6.5c0-0.8,0-1.5,0.2-2.3c0.2-0.5,0.5-0.9,0.9-1.2c0.5-0.3,1.1-0.5,1.8-0.5
		c1,0,2,0.4,2.6,1.1V5.5H119.5z M115.3,12.1c0-0.3,0-0.7-0.1-1c-0.1-0.2-0.3-0.3-0.5-0.3c-0.2,0-0.4,0.1-0.5,0.2
		c-0.1,0.3-0.2,0.7-0.1,1.1v6.8c0,0.4,0,0.8,0.1,1.1c0.1,0.2,0.3,0.3,0.5,0.3c0.2,0,0.4-0.1,0.5-0.3c0.1-0.5,0.2-1,0.1-1.5
		L115.3,12.1z"/>
	<path class="st0" d="M125.4,5.5v2.2H121V5.5H125.4z M125.4,8.6v13.9H121V8.6L125.4,8.6z"/>
	<path class="st0" d="M130.7,14h-4V13c0-0.8,0.1-1.7,0.4-2.5c0.3-0.7,0.8-1.2,1.5-1.5c2-0.9,4.2-0.9,6.2,0.1
		c0.7,0.4,1.1,1.1,1.3,1.9c0.2,1.5,0.3,3,0.2,4.6v7h-4.1v-1.2c-0.2,0.5-0.6,0.8-1,1.1c-0.4,0.3-1,0.4-1.5,0.4c-0.7,0-1.4-0.2-2-0.6
		c-0.6-0.4-0.9-1.3-0.9-2.7v-1.1c-0.1-0.7,0.1-1.5,0.5-2.1c0.7-0.6,1.5-1.1,2.4-1.3c0.8-0.2,1.6-0.6,2.2-1.1
		c0.1-0.4,0.2-0.8,0.1-1.2c0-0.5,0-1-0.2-1.4c-0.1-0.2-0.3-0.3-0.5-0.3c-0.3,0-0.5,0.1-0.5,0.3c-0.1,0.5-0.1,1-0.1,1.4L130.7,14z
		 M132.1,15.9c-0.5,0.3-0.9,0.7-1.2,1.2c-0.1,0.5-0.2,1-0.2,1.4c0,0.5,0,0.9,0.1,1.4c0.1,0.2,0.3,0.3,0.6,0.3c0.2,0,0.4-0.1,0.5-0.2
		c0.1-0.4,0.2-0.9,0.1-1.3L132.1,15.9z"/>
	<path class="st0" d="M142.2,5.5v17h-4.4v-17H142.2z"/>
</g>
<g>
	<path d="M159.6,21.6c-0.4,0.3-0.8,0.5-1.1,0.7c-0.3,0.2-0.6,0.3-0.9,0.5c-0.2,0.1-0.5,0.2-0.7,0.3c-0.2,0.1-0.4,0.1-0.7,0.1
		c-0.3,0-0.5-0.2-0.6-0.4c-0.2-0.3-0.3-0.7-0.3-1.2c0-0.4,0-0.7,0.1-1.1c0.1-0.5,0.2-1.1,0.3-1.9c0.1-0.7,0.2-1.5,0.4-2.4
		c0.1-0.9,0.3-1.7,0.4-2.6s0.3-1.8,0.4-2.7c0.1-0.9,0.3-1.7,0.4-2.5s0.2-1.4,0.3-2c0.1-0.4,0.1-0.9,0.1-1.3c0-0.2,0-0.3-0.1-0.5
		c0-0.1-0.1-0.2-0.1-0.3c-0.1-0.1-0.1-0.1-0.2-0.1c-0.1,0-0.2,0-0.2,0c-0.1,0-0.2,0-0.3,0.1c-0.2,0-0.3,0.1-0.4,0.1
		c-0.2,0.1-0.4,0.1-0.6,0.2l-0.2-0.5c0.4-0.2,0.7-0.3,1.1-0.5s0.7-0.3,1-0.4c0.3-0.1,0.6-0.2,0.8-0.3c0.2-0.1,0.4-0.1,0.5-0.1
		c0.2,0,0.4,0.1,0.6,0.2c0.2,0.2,0.2,0.5,0.2,0.8c0,0.5,0,0.9-0.1,1.4c-0.1,0.6-0.2,1.3-0.3,2s-0.2,1.6-0.4,2.5
		c-0.1,0.9-0.3,1.8-0.4,2.7c-0.1,0.9-0.3,1.8-0.4,2.7c-0.1,0.9-0.3,1.7-0.4,2.4s-0.2,1.4-0.3,2c-0.1,0.4-0.1,0.9-0.1,1.3
		c0,0.2,0,0.4,0.1,0.6c0.1,0.1,0.2,0.2,0.3,0.2c0.2,0,0.5,0,0.7-0.1c0.3-0.1,0.7-0.2,1-0.3L159.6,21.6z"/>
	<path d="M165.1,5.4c0,0.5-0.1,0.9-0.3,1.4c-0.2,0.5-0.4,0.9-0.7,1.3c-0.3,0.4-0.6,0.8-1,1.2c-0.3,0.3-0.7,0.6-1.1,0.9l-0.5-0.4
		c0.2-0.2,0.3-0.4,0.5-0.6c0.2-0.2,0.3-0.5,0.5-0.7c0.2-0.3,0.3-0.5,0.4-0.8c0.1-0.2,0.1-0.5,0.2-0.7c0-0.3-0.1-0.6-0.3-0.8
		c-0.3-0.2-0.6-0.3-1-0.3l-0.1-0.6c0.2-0.1,0.3-0.3,0.5-0.4c0.2-0.1,0.5-0.3,0.8-0.4c0.3-0.1,0.5-0.2,0.8-0.3C164,4,164.2,4,164.4,4
		c0.2,0.1,0.4,0.3,0.6,0.6C165.1,4.8,165.2,5.1,165.1,5.4z"/>
	<path d="M167,16.8l-1.9,4.3c-0.1,0.2-0.1,0.4,0.1,0.5c0,0,0.1,0,0.1,0c0.4,0.2,0.9,0.3,1.4,0.3l-0.1,0.6h-4.9l0.1-0.6
		c0.4-0.1,0.9-0.2,1.3-0.3c0.3-0.1,0.5-0.3,0.7-0.6l6.3-14.5c0.1-0.1,0.3-0.2,0.4-0.3c0.2-0.1,0.3-0.2,0.5-0.3l0.5-0.3
		c0.2-0.1,0.3-0.2,0.4-0.2l2.8,15.6c0,0.1,0,0.2,0.1,0.3c0.1,0.1,0.1,0.2,0.2,0.2c0.1,0.1,0.3,0.1,0.4,0.2c0.2,0.1,0.5,0.1,0.7,0.1
		l-0.1,0.6h-5l0.1-0.6c0.5,0,0.9-0.1,1.3-0.3c0.2-0.1,0.4-0.4,0.3-0.6l-0.8-4.3L167,16.8z M171.8,15.6l-1.2-7.1l-3.1,7.1L171.8,15.6
		z"/>
	<path d="M183.8,21c-0.4,0.3-0.8,0.6-1.3,0.9c-0.4,0.2-0.8,0.5-1.2,0.6c-0.3,0.2-0.7,0.3-1,0.4c-0.2,0.1-0.5,0.1-0.7,0.1
		c-0.2,0-0.4-0.1-0.6-0.2c-0.2-0.1-0.4-0.3-0.5-0.5c-0.2-0.3-0.3-0.5-0.4-0.8c-0.1-0.3-0.1-0.7-0.1-1c0-0.2,0-0.3,0-0.5s0-0.3,0-0.5
		s0-0.4,0.1-0.6s0.1-0.4,0.1-0.7l1-6.3h-1.9l-0.2-0.4l1.3-0.8h0.9l0.1-0.5c0.1-0.4,0.1-0.6,0.2-0.9c0-0.2,0.1-0.4,0.2-0.6
		c0.1-0.1,0.1-0.3,0.2-0.4c0.1-0.1,0.2-0.2,0.3-0.3l1.3-0.9l0.4,0.3c-0.1,0.1-0.2,0.3-0.2,0.4c-0.1,0.2-0.1,0.4-0.2,0.7
		s-0.2,0.7-0.3,1.3l-0.1,0.7h3.2l0.3,0.4c-0.1,0.1-0.2,0.3-0.4,0.4c-0.2,0.1-0.3,0.3-0.5,0.4s-0.3,0.2-0.5,0.4
		c-0.1,0.1-0.2,0.2-0.3,0.2c0-0.1-0.1-0.2-0.2-0.3c-0.1-0.1-0.2-0.1-0.4-0.2c-0.2,0-0.4-0.1-0.6-0.1c-0.2,0-0.5,0-0.8,0h0l-0.9,5.9
		c0,0.2-0.1,0.3-0.1,0.5s0,0.4-0.1,0.5s0,0.3,0,0.5s0,0.3,0,0.3c0,0.4,0.1,0.8,0.3,1.2c0.1,0.2,0.4,0.4,0.7,0.4
		c0.4,0,0.7-0.1,1.1-0.2c0.6-0.2,1.1-0.4,1.6-0.6L183.8,21z"/>
	<path d="M189.7,21.6c-0.4,0.3-0.8,0.5-1.1,0.7c-0.3,0.2-0.6,0.3-0.9,0.5c-0.2,0.1-0.5,0.2-0.7,0.3c-0.2,0.1-0.4,0.1-0.7,0.1
		c-0.3,0-0.5-0.2-0.6-0.4c-0.2-0.3-0.3-0.7-0.3-1.2c0-0.4,0-0.7,0.1-1.1c0.1-0.5,0.2-1.1,0.3-1.9c0.1-0.7,0.2-1.5,0.4-2.4
		c0.1-0.9,0.3-1.7,0.4-2.6c0.1-0.9,0.3-1.8,0.4-2.7c0.1-0.9,0.3-1.7,0.4-2.5s0.2-1.4,0.3-2c0.1-0.4,0.1-0.9,0.1-1.3
		c0-0.2,0-0.3-0.1-0.5c0-0.1-0.1-0.2-0.1-0.3c-0.1-0.1-0.1-0.1-0.2-0.1c-0.1,0-0.2,0-0.2,0c-0.1,0-0.2,0-0.3,0.1
		c-0.2,0-0.3,0.1-0.4,0.1c-0.2,0.1-0.4,0.1-0.6,0.2l-0.2-0.5c0.4-0.2,0.7-0.3,1.1-0.5c0.4-0.1,0.7-0.3,1-0.4
		c0.3-0.1,0.6-0.2,0.8-0.3c0.2-0.1,0.4-0.1,0.5-0.1c0.2,0,0.4,0.1,0.6,0.2c0.2,0.2,0.2,0.5,0.2,0.8c0,0.5,0,0.9-0.1,1.4
		c-0.1,0.6-0.2,1.3-0.3,2s-0.2,1.6-0.4,2.5c-0.1,0.9-0.3,1.8-0.4,2.7s-0.3,1.8-0.4,2.7c-0.1,0.9-0.3,1.7-0.4,2.4
		c-0.1,0.7-0.2,1.4-0.3,2c-0.1,0.4-0.1,0.9-0.1,1.3c0,0.2,0,0.4,0.1,0.6c0.1,0.1,0.2,0.2,0.3,0.2c0.2,0,0.5,0,0.7-0.1
		c0.3-0.1,0.7-0.2,1-0.3L189.7,21.6z"/>
	<path d="M201.7,21.7c-0.6,0.4-1.2,0.8-1.8,1.1c-0.3,0.2-0.7,0.3-1.1,0.3c-0.2,0-0.3-0.1-0.4-0.2c-0.2-0.2-0.3-0.4-0.4-0.6
		c-0.1-0.4-0.2-0.8-0.3-1.2c-0.1-0.7-0.1-1.4-0.1-2c-0.2,0.4-0.5,0.8-0.8,1.3c-0.3,0.5-0.7,0.9-1,1.3c-0.3,0.4-0.7,0.7-1.1,1
		c-0.6,0.5-1.4,0.5-2,0.2c-0.4-0.2-0.7-0.5-0.9-0.8c-0.3-0.4-0.5-0.9-0.7-1.4c-0.2-0.7-0.3-1.4-0.3-2.1c0-0.7,0.1-1.3,0.2-2
		c0.2-0.7,0.4-1.3,0.7-1.9c0.3-0.6,0.7-1.2,1.2-1.7c0.5-0.5,1-1,1.6-1.4c0.2-0.2,0.5-0.3,0.8-0.5c0.3-0.1,0.6-0.3,0.9-0.4
		c0.3-0.1,0.6-0.2,0.9-0.3c0.3-0.1,0.6-0.1,0.8-0.1c0.2,0,0.4,0,0.5,0.1c0.2,0,0.3,0.1,0.5,0.2c0.2,0.1,0.3,0.2,0.5,0.3
		c0.1,0.1,0.3,0.2,0.4,0.3c0.2-0.2,0.4-0.3,0.6-0.4c0.2-0.1,0.5-0.3,0.7-0.4l0.3,0.5c-0.1,0.1-0.3,0.2-0.4,0.3
		c-0.1,0.1-0.2,0.2-0.3,0.3c-0.1,0.1-0.1,0.3-0.2,0.5c-0.1,0.2-0.1,0.4-0.2,0.7c-0.1,0.6-0.3,1.3-0.4,1.9c-0.1,0.7-0.2,1.3-0.3,1.8
		c-0.1,0.6-0.1,1.1-0.2,1.5s-0.1,0.8-0.1,0.9c0,0.5,0,0.9,0,1.2c0,0.3,0.1,0.5,0.1,0.8c0,0.2,0.1,0.3,0.2,0.4
		c0.1,0.1,0.2,0.1,0.3,0.1c0.2,0,0.4,0,0.6-0.1c0.3-0.1,0.6-0.2,0.9-0.3L201.7,21.7z M197.8,17c0.1-0.4,0.1-0.8,0.2-1.2
		s0.1-0.8,0.2-1.2s0.1-0.7,0.2-1.1s0.1-0.6,0.1-0.8c-0.1-0.1-0.3-0.2-0.4-0.3c-0.2-0.1-0.3-0.2-0.5-0.3c-0.2-0.1-0.4-0.2-0.6-0.2
		c-0.2-0.1-0.4-0.1-0.6-0.1c-0.4,0-0.8,0.1-1.1,0.3c-0.4,0.2-0.7,0.5-1,0.8c-0.3,0.3-0.6,0.7-0.8,1.1c-0.2,0.4-0.4,0.8-0.6,1.3
		c-0.2,0.4-0.3,0.9-0.4,1.3c-0.1,0.4-0.1,0.8-0.1,1.1c0,0.5,0,1,0.1,1.5c0.1,0.4,0.2,0.8,0.4,1.2c0.1,0.3,0.3,0.5,0.6,0.7
		c0.2,0.2,0.5,0.3,0.7,0.3c0.3,0,0.6-0.2,0.8-0.4c0.3-0.3,0.7-0.7,0.9-1c0.3-0.5,0.7-0.9,1-1.4C197.3,18,197.6,17.5,197.8,17z"/>
	<path d="M211.5,11.6c-0.2,0.2-0.3,0.4-0.5,0.5s-0.3,0.3-0.5,0.4c-0.1,0.1-0.3,0.2-0.4,0.3c-0.1,0.1-0.2,0.1-0.3,0.1
		c-0.1,0-0.3-0.1-0.4-0.2c-0.1-0.2-0.3-0.3-0.4-0.5c-0.2-0.2-0.4-0.3-0.6-0.5c-0.2-0.2-0.5-0.2-0.7-0.2c-0.2,0-0.5,0-0.7,0.1
		c-0.2,0.1-0.4,0.2-0.6,0.4c-0.2,0.2-0.3,0.4-0.5,0.6c-0.1,0.2-0.2,0.5-0.2,0.8c0,0.4,0.2,0.7,0.4,1c0.4,0.4,0.9,0.8,1.5,1
		c0.4,0.2,0.7,0.4,1.1,0.6c0.3,0.2,0.7,0.5,0.9,0.7c0.3,0.3,0.5,0.6,0.7,1c0.2,0.4,0.3,0.8,0.3,1.2c0,0.6-0.2,1.2-0.5,1.7
		c-0.3,0.5-0.7,1-1.2,1.4c-0.5,0.4-1,0.7-1.6,0.9c-0.5,0.2-1.1,0.3-1.7,0.3c-0.4,0-0.8-0.1-1.2-0.2c-0.4-0.1-0.7-0.3-1.1-0.4
		c-0.3-0.2-0.5-0.4-0.8-0.6c-0.2-0.2-0.3-0.4-0.3-0.6c0-0.1,0.1-0.3,0.2-0.4c0.2-0.4,0.5-0.7,0.8-1c0.1-0.1,0.2-0.2,0.4-0.2
		c0.1,0,0.1,0.1,0.2,0.2s0.1,0.2,0.2,0.4s0.2,0.3,0.4,0.5c0.1,0.2,0.3,0.4,0.5,0.5c0.2,0.2,0.5,0.3,0.7,0.4c0.3,0.1,0.7,0.2,1,0.2
		c0.3,0,0.6-0.1,0.9-0.2c0.3-0.1,0.5-0.3,0.7-0.5c0.2-0.2,0.4-0.4,0.5-0.7c0.1-0.3,0.2-0.6,0.2-0.8c0-0.3-0.1-0.6-0.2-0.9
		c-0.1-0.3-0.3-0.5-0.6-0.7c-0.2-0.2-0.5-0.4-0.8-0.6c-0.3-0.2-0.6-0.4-0.9-0.5c-0.4-0.2-0.8-0.4-1.2-0.6c-0.3-0.2-0.5-0.4-0.8-0.7
		c-0.2-0.2-0.3-0.5-0.4-0.7c-0.1-0.3-0.1-0.5-0.1-0.8c0-0.5,0.1-1,0.4-1.5c0.3-0.5,0.6-0.8,1-1.2c0.4-0.3,0.9-0.6,1.4-0.8
		c0.5-0.2,1-0.3,1.5-0.3c0.4,0,0.8,0,1.1,0.2c0.3,0.1,0.5,0.2,0.8,0.4c0.2,0.1,0.4,0.3,0.6,0.4C211.1,11.5,211.3,11.6,211.5,11.6z"
		/>
</g>
</svg>
