<svg height="56.26" width="358.806" xmlns="http://www.w3.org/2000/svg"><path d="m29.835 535.723s2.257-2.198 5.187-2.198c1.582 0 3.017.821 3.017 2.52 0 3.722-9.816 3.078-9.816 9.465 0 3.458 2.989 6.037 6.974 6.037 4.103 0 6.213-2.228 6.213-2.228l-1.642-3.076s-1.992 1.817-4.601 1.817c-1.758 0-3.134-1.026-3.134-2.49 0-3.693 9.786-2.785 9.786-9.436 0-3.312-2.519-6.096-6.856-6.096-4.63 0-7.18 2.842-7.18 2.842zm20.733 8.456c3.513 0 5.178-2.008 5.178-2.008l-1.48-2.297s-1.4 1.452-3.513 1.452c-2.484 0-4.094-1.875-4.094-4.173 0-2.273 1.637-4.227 4.199-4.227 2.272 0 3.963 1.717 3.963 1.717l1.294-2.377s-1.929-2.193-5.547-2.193c-4.464 0-7.317 3.143-7.317 7.053 0 3.83 2.853 7.053 7.317 7.053m7.531-.317h3.355v-13.471h-3.355zm0 5.283h3.328v-2.985h-3.328zm15.005-10.355c-.053 1.823-1.188 2.8-2.668 2.8-1.716 0-2.905-1.057-3.222-2.8zm-2.588 5.39c3.883 0 5.969-2.828 5.969-6.394 0-.396-.078-1.295-.078-1.295h-9.3c.212-2.35 2.035-3.565 4.043-3.565 2.166 0 3.883 1.48 3.883 1.48l1.294-2.404s-2.061-1.929-5.415-1.929c-4.464 0-7.238 3.222-7.238 7.053 0 4.147 2.827 7.053 6.842 7.053m8.217-.318h3.223v-1.558c0-.503-.053-.925-.053-.925h.053c.58 1.136 2.06 2.801 4.78 2.801 2.986 0 4.676-1.559 4.676-5.125v-8.664h-3.328v7.977c0 1.637-.423 2.747-2.14 2.747-1.796 0-3.116-1.135-3.618-2.747-.185-.554-.238-1.163-.238-1.796v-6.18h-3.355zm22.007.318c3.513 0 5.178-2.008 5.178-2.008l-1.48-2.297s-1.4 1.452-3.513 1.452c-2.483 0-4.094-1.875-4.094-4.173 0-2.273 1.637-4.227 4.199-4.227 2.273 0 3.963 1.717 3.963 1.717l1.295-2.377s-1.93-2.193-5.548-2.193c-4.464 0-7.317 3.143-7.317 7.053 0 3.83 2.853 7.053 7.317 7.053m16.01-5.389c-.052 1.823-1.188 2.8-2.667 2.8-1.719 0-2.906-1.057-3.223-2.8zm-2.588 5.39c3.882 0 5.97-2.828 5.97-6.394 0-.396-.08-1.295-.08-1.295h-9.298c.211-2.35 2.033-3.565 4.041-3.565 2.167 0 3.885 1.48 3.885 1.48l1.292-2.404s-2.06-1.929-5.414-1.929c-4.464 0-7.238 3.222-7.238 7.053 0 4.147 2.828 7.053 6.842 7.053m9.142-9.774s1.479-1.48 3.672-1.48c.95 0 1.77.423 1.77 1.216 0 2.007-6.551 1.744-6.551 6.075 0 2.51 2.245 3.963 5.15 3.963 3.039 0 4.518-1.533 4.518-1.533l-1.242-2.483s-1.241 1.163-3.301 1.163c-.873 0-1.718-.37-1.718-1.215 0-1.902 6.552-1.664 6.552-5.996 0-2.246-1.955-4.043-5.151-4.043-3.356 0-5.231 1.982-5.231 1.982zm19.131 6.447c2.2 0 3.488 1.406 3.488 3.575 0 2.139-1.289 3.516-3.43 3.516h-3.603v-7.091zm-7.325 10.344h8.028c3.9 0 6.622-2.725 6.622-6.77 0-4.044-2.723-6.857-6.622-6.857h-4.248v-7.178h-3.78zm22.454-18.27c2.167 0 3.988 1.69 3.988 4.2 0 2.482-1.821 4.2-3.988 4.2-2.193 0-4.015-1.718-4.015-4.2 0-2.51 1.822-4.2 4.015-4.2m-.027 11.253c4.12 0 7.423-2.932 7.423-7.054 0-4.146-3.302-7.052-7.396-7.052-4.12 0-7.422 2.906-7.422 7.052 0 4.122 3.302 7.054 7.395 7.054" fill="#666" transform="matrix(2.60486 0 0 -2.60486 -71.63 1436.818)"/></svg>