<?xml version="1.0" encoding="utf-8"?>
<!-- Generator: Adobe Illustrator 23.0.1, SVG Export Plug-In . SVG Version: 6.00 Build 0)  -->
<svg version="1.1" id="Calque_1" xmlns="http://www.w3.org/2000/svg" xmlns:xlink="http://www.w3.org/1999/xlink" x="0px" y="0px"
	 viewBox="0 0 358.8 56.3" style="enable-background:new 0 0 358.8 56.3;" xml:space="preserve">
<style type="text/css">
	.st0{fill:#FF0C2A;}
</style>
<path class="st0" d="M6.1,41.3c0,0,5.9,5.7,13.5,5.7c4.1,0,7.9-2.1,7.9-6.6c0-9.7-25.6-8-25.6-24.7c0-9,7.8-15.7,18.2-15.7
	c10.7,0,16.2,5.8,16.2,5.8l-4.3,8c0,0-5.2-4.7-12-4.7c-4.6,0-8.2,2.7-8.2,6.5c0,9.6,25.5,7.3,25.5,24.6c0,8.6-6.6,15.9-17.9,15.9
	c-12.1,0-18.7-7.4-18.7-7.4L6.1,41.3z M60.1,19.3c9.2,0,13.5,5.2,13.5,5.2l-3.9,6c0,0-3.6-3.8-9.2-3.8c-6.5,0-10.7,4.9-10.7,10.9
	c0,5.9,4.3,11,10.9,11c5.9,0,10.3-4.5,10.3-4.5l3.4,6.2c0,0-5,5.7-14.4,5.7C48.5,56.1,41,47.9,41,37.7C41,27.7,48.5,19.3,60.1,19.3
	 M79.7,20.1h8.7v35.1h-8.7V20.1z M79.7,6.4h8.7v7.8h-8.7V6.4z M118.8,33.3c-0.1-4.7-3.1-7.3-6.9-7.3c-4.5,0-7.6,2.8-8.4,7.3H118.8z
	 M112.1,19.3c10.1,0,15.5,7.4,15.5,16.7c0,1-0.2,3.4-0.2,3.4h-24.2c0.6,6.1,5.3,9.3,10.5,9.3c5.6,0,10.1-3.9,10.1-3.9l3.4,6.3
	c0,0-5.4,5-14.1,5c-11.6,0-18.9-8.4-18.9-18.4C94.2,26.9,101.6,19.3,112.1,19.3 M133.5,20.1h8.4v4.1c0,1.3-0.1,2.4-0.1,2.4h0.1
	c1.5-3,5.4-7.3,12.5-7.3c7.8,0,12.2,4.1,12.2,13.3v22.6h-8.7V34.4c0-4.3-1.1-7.2-5.6-7.2c-4.7,0-8.1,3-9.4,7.2
	c-0.5,1.4-0.6,3-0.6,4.7v16.1h-8.7L133.5,20.1z M190.8,19.3c9.2,0,13.5,5.2,13.5,5.2l-3.9,6c0,0-3.6-3.8-9.2-3.8
	c-6.5,0-10.7,4.9-10.7,10.9c0,5.9,4.3,11,10.9,11c5.9,0,10.3-4.5,10.3-4.5l3.4,6.2c0,0-5,5.7-14.5,5.7c-11.6,0-19.1-8.2-19.1-18.4
	C171.7,27.7,179.2,19.3,190.8,19.3 M232.5,33.3c-0.1-4.7-3.1-7.3-6.9-7.3c-4.5,0-7.6,2.8-8.4,7.3H232.5z M225.7,19.3
	c10.1,0,15.6,7.4,15.6,16.7c0,1-0.2,3.4-0.2,3.4h-24.2c0.5,6.1,5.3,9.3,10.5,9.3c5.6,0,10.1-3.9,10.1-3.9l3.4,6.3c0,0-5.4,5-14.1,5
	c-11.6,0-18.9-8.4-18.9-18.4C207.9,26.9,215.3,19.3,225.7,19.3 M249.6,44.8c0,0,3.9,3.9,9.6,3.9c2.5,0,4.6-1.1,4.6-3.2
	c0-5.2-17.1-4.5-17.1-15.8c0-6.5,5.8-10.3,13.4-10.3c7.9,0,11.8,4,11.8,4l-3.2,6.5c0,0-3.2-3-8.6-3c-2.3,0-4.5,1-4.5,3.2
	c0,5,17.1,4.3,17.1,15.6c0,5.9-5.1,10.5-13.4,10.5c-8.7,0-13.6-5.2-13.6-5.2L249.6,44.8z M299.4,28c5.7,0,9.1-3.7,9.1-9.3
	c0-5.6-3.4-9.2-8.9-9.2h-9.4V28H299.4z M280.3,1h20.9c10.2,0,17.2,7.1,17.2,17.6c0,10.5-7.1,17.9-17.2,17.9h-11.1v18.7h-9.8V1z
	 M338.8,48.6c5.6,0,10.4-4.4,10.4-10.9c0-6.5-4.7-10.9-10.4-10.9c-5.7,0-10.5,4.5-10.5,10.9C328.3,44.2,333.1,48.6,338.8,48.6
	 M338.7,19.3c10.7,0,19.3,7.6,19.3,18.4c0,10.8-8.6,18.4-19.3,18.4c-10.7,0-19.3-7.6-19.3-18.4C319.5,26.9,328.1,19.3,338.7,19.3"/>
</svg>
