<?xml version="1.0" encoding="utf-8"?>
<!-- Generator: Adobe Illustrator 16.0.4, SVG Export Plug-In . SVG Version: 6.00 Build 0)  -->
<!DOCTYPE svg PUBLIC "-//W3C//DTD SVG 1.1//EN" "http://www.w3.org/Graphics/SVG/1.1/DTD/svg11.dtd">
<svg version="1.1" xmlns="http://www.w3.org/2000/svg" xmlns:xlink="http://www.w3.org/1999/xlink" x="0px" y="0px" width="24px"
	 height="24px" viewBox="0 0 24 24" enable-background="new 0 0 24 24" xml:space="preserve">
<g id="box">
	<rect fill="none" width="24" height="24"/>
</g>
<g id="_x30_">
</g>
<g id="_x31_">
</g>
<g id="_x32_">
</g>
<g id="_x33_">
</g>
<g id="_x34_">
	<g>
		<line fill="none" stroke="#181715" stroke-linecap="round" stroke-miterlimit="10" x1="11.998" y1="20.833" x2="11.998" y2="12"/>
		<line fill="none" stroke="#181715" stroke-linecap="round" stroke-miterlimit="10" x1="3.165" y1="12" x2="11.998" y2="12"/>
		<line fill="none" stroke="#181715" stroke-linecap="round" stroke-miterlimit="10" x1="3.164" y1="14.463" x2="11.998" y2="12"/>
		<line fill="none" stroke="#181715" stroke-linecap="round" stroke-miterlimit="10" x1="3.165" y1="17.341" x2="11.998" y2="12"/>
		<line fill="none" stroke="#181715" stroke-linecap="round" stroke-miterlimit="10" x1="3.686" y1="20.833" x2="11.998" y2="12"/>
		<line fill="none" stroke="#181715" stroke-linecap="round" stroke-miterlimit="10" x1="7.364" y1="20.833" x2="11.998" y2="12"/>
		<line fill="none" stroke="#181715" stroke-linecap="round" stroke-miterlimit="10" x1="10.104" y1="20.833" x2="11.998" y2="12"/>
		<path fill="none" stroke="#181715" stroke-linecap="round" stroke-miterlimit="10" d="M13.514,13.446
			c0.359-0.376,0.58-0.886,0.58-1.446c0-1.156-0.938-2.094-2.094-2.094c-0.562,0-1.071,0.221-1.447,0.581"/>
		<path fill="none" stroke="#181715" stroke-linecap="round" stroke-miterlimit="10" d="M15.047,15.047
			c0.78-0.78,1.262-1.857,1.262-3.047c0-2.381-1.93-4.311-4.31-4.311c-1.174,0-2.238,0.469-3.015,1.229"/>
		<path fill="none" stroke="#181715" stroke-linecap="round" stroke-miterlimit="10" d="M16.935,16.932
			c1.263-1.262,2.044-3.006,2.044-4.932c0-3.855-3.125-6.98-6.979-6.98c-1.912,0-3.644,0.768-4.905,2.014"/>
		<path fill="none" stroke="#181715" stroke-linecap="round" stroke-miterlimit="10" d="M18.816,18.814
			C20.561,17.07,21.64,14.66,21.64,12c0-5.326-4.317-9.644-9.641-9.644c-2.648,0-5.046,1.067-6.789,2.795"/>
	</g>
</g>
<g id="_x35_">
</g>
<g id="txt">
</g>
<g id="marges">
</g>
</svg>
