<?xml version="1.0" encoding="utf-8"?>
<!-- Generator: Adobe Illustrator 20.0.0, SVG Export Plug-In . SVG Version: 6.00 Build 0)  -->
<svg version="1.1" id="Calque_1" xmlns="http://www.w3.org/2000/svg" xmlns:xlink="http://www.w3.org/1999/xlink" x="0px" y="0px"
	 width="304.1px" height="73.1px" viewBox="0 0 304.1 73.1" style="enable-background:new 0 0 304.1 73.1;" xml:space="preserve">
<style type="text/css">
	.st0{fill:#777777;}
</style>
<path class="st0" d="M24.9,32.7c0,0,4.7,4.5,10.7,4.5c3.3,0,6.2-1.7,6.2-5.2c0-7.7-20.3-6.4-20.3-19.6C21.6,5.3,27.8,0,36,0
	c8.5,0,12.8,4.6,12.8,4.6L45.5,11c-2.7-2.3-6-3.6-9.5-3.8c-3.6,0-6.5,2.1-6.5,5.1c0,7.6,20.2,5.8,20.2,19.5
	c0,6.8-5.2,12.6-14.2,12.6c-5.5,0.1-10.9-2.1-14.8-5.9L24.9,32.7z"/>
<path class="st0" d="M67.8,15.2c7.3,0,10.7,4.1,10.7,4.1l-3.1,4.8c-2-1.9-4.6-2.9-7.3-3c-4.6-0.1-8.4,3.5-8.5,8.1c0,0.2,0,0.4,0,0.6
	c-0.1,4.7,3.5,8.6,8.2,8.7c0.2,0,0.3,0,0.5,0c4.7,0,8.2-3.5,8.2-3.5l2.7,4.9c-3.1,3-7.2,4.6-11.5,4.5c-9.2,0-15.1-6.5-15.1-14.6
	C52.7,21.9,58.6,15.2,67.8,15.2"/>
<path class="st0" d="M83.3,5h6.9v6.2h-6.9V5z M83.3,15.9h6.9v27.8h-6.9V15.9z"/>
<path class="st0" d="M109,15.2c8,0,12.3,5.8,12.3,13.2c0,0.8-0.2,2.7-0.2,2.7H102c0.4,4.9,4.2,7.4,8.3,7.4c2.9-0.1,5.7-1.2,8-3.1
	l2.7,5c-3.1,2.6-7.1,4-11.2,4c-9.2,0-15-6.7-15-14.6C94.8,21.3,100.6,15.3,109,15.2 M114.3,26.4c-0.1-3.8-2.5-5.8-5.5-5.8
	c-3.6,0-6,2.2-6.7,5.8H114.3z"/>
<path class="st0" d="M126,15.9h6.7v3.2c0,0.6,0,1.3-0.1,1.9h0.1c1.9-3.7,5.8-5.9,9.9-5.8c6.2,0,9.7,3.2,9.7,10.6v17.9h-6.9V27.2
	c0-3.4-0.9-5.7-4.4-5.7c-3.5,0-6.6,2.3-7.5,5.7c-0.4,1.2-0.5,2.5-0.5,3.7v12.8H126V15.9z"/>
<path class="st0" d="M171.4,15.2c7.3,0,10.7,4.1,10.7,4.1l-3.1,4.8c-2-1.9-4.6-2.9-7.3-3c-4.6-0.1-8.4,3.5-8.5,8.1
	c0,0.2,0,0.4,0,0.6c-0.1,4.7,3.5,8.6,8.2,8.7c0.1,0,0.3,0,0.4,0c4.7,0,8.2-3.5,8.2-3.5l2.7,4.9c-3.1,3-7.2,4.6-11.5,4.5
	c-9.2,0-15.1-6.5-15.1-14.6C156.3,21.9,162.2,15.2,171.4,15.2"/>
<path class="st0" d="M199.2,15.2c8,0,12.3,5.8,12.3,13.2c0,0.8-0.2,2.7-0.2,2.7h-19.2c0.4,4.9,4.2,7.4,8.4,7.4
	c2.9-0.1,5.7-1.2,8-3.1l2.7,5c-3.1,2.6-7.1,4-11.2,4c-9.2,0-15-6.7-15-14.6C185,21.3,190.8,15.3,199.2,15.2 M204.5,26.4
	c-0.1-3.8-2.5-5.8-5.5-5.8c-3.6,0-6,2.2-6.7,5.8H204.5z"/>
<path class="st0" d="M218.1,35.4c2.1,1.9,4.8,3,7.6,3.1c2,0,3.7-0.9,3.7-2.5c0-4.1-13.5-3.6-13.5-12.6c0-5.2,4.6-8.2,10.6-8.2
	c6.3,0,9.3,3.2,9.3,3.2l-2.6,5.1c-1.9-1.6-4.3-2.4-6.8-2.4c-1.8,0-3.6,0.8-3.6,2.5c0,3.9,13.5,3.4,13.5,12.4c0,4.6-4,8.4-10.6,8.4
	c-4,0.1-7.9-1.4-10.8-4.1L218.1,35.4z"/>
<path class="st0" d="M242.5,0.7h16.6c8.1,0,13.7,5.6,13.7,14s-5.6,14.2-13.7,14.2h-8.8v14.8h-7.8V0.7z M257.6,22.1
	c4.5,0,7.2-2.9,7.2-7.4s-2.7-7.3-7.1-7.3h-7.4v14.7H257.6z"/>
<path class="st0" d="M288.8,15.2c8.5,0,15.3,6.1,15.3,14.6s-6.8,14.6-15.3,14.6s-15.3-6-15.3-14.6S280.3,15.2,288.8,15.2
	 M288.9,38.5c4.5,0,8.2-3.5,8.2-8.7c0.2-4.6-3.3-8.5-7.9-8.7c-4.6-0.2-8.5,3.3-8.7,7.9c0,0.3,0,0.5,0,0.8c-0.2,4.6,3.3,8.5,7.9,8.7
	C288.6,38.5,288.7,38.5,288.9,38.5"/>
<path class="st0" d="M29.3,69h-5.2l-1.3,3.8H20l5.2-14.9h2.8l5.2,14.9h-2.8L29.3,69z M26.7,60.5c0,0-0.3,1.5-0.7,2.3l-1.3,4h3.9
	l-1.3-4C27,62,26.7,60.5,26.7,60.5L26.7,60.5z"/>
<path class="st0" d="M37.5,60.3h-4.9v-2.3h12.5v2.3h-4.9v12.6h-2.7V60.3z"/>
<path class="st0" d="M47,57.9h9v2.3h-6.2v3.9h5v2.3h-5v4h6.5v2.3H47V57.9z"/>
<path class="st0" d="M59.1,57.9h2.7v12.6h6.5v2.3h-9.2V57.9z"/>
<path class="st0" d="M70.4,57.9h2.7v14.9h-2.7V57.9z"/>
<path class="st0" d="M76.9,57.9h8.9v2.3h-6.2v3.9h5v2.3h-5v4h6.6v2.3h-9.3V57.9z"/>
<path class="st0" d="M89,57.9h4.8c1-0.1,2,0.1,3,0.4c1.6,0.7,2.5,2.3,2.4,4.1c0.1,1.7-0.9,3.4-2.5,4.1l0,0c0.2,0.2,0.4,0.5,0.5,0.7
	l3.1,5.6h-3l-3-5.6h-2.6v5.6H89V57.9z M94.1,64.9c1.2,0.1,2.2-0.8,2.3-2c0-0.1,0-0.3,0-0.4c0-1.4-0.6-2.3-2.7-2.3h-2v4.7H94.1z"/>
<path class="st0" d="M107.9,57.9h5.1c4.6,0,7.6,2.7,7.6,7.4s-3,7.5-7.6,7.5h-5.1V57.9z M112.9,70.5c3,0,5-1.8,5-5.1s-2-5.1-5-5.1
	h-2.2v10.2H112.9z"/>
<path class="st0" d="M123.4,57.9h8.9v2.3h-6.2v3.9h5v2.3h-5v4h6.6v2.3h-9.3V57.9z"/>
<path class="st0" d="M147.3,57.7c2-0.1,4,0.6,5.5,2l-1.3,2c-1.1-1-2.6-1.5-4.1-1.6c-2.7-0.1-4.9,2-5,4.7c0,0.1,0,0.3,0,0.4
	c-0.2,2.8,1.9,5.1,4.7,5.3c0.1,0,0.2,0,0.3,0c1.6-0.1,3.2-0.7,4.3-1.9l1.4,2c-1.5,1.6-3.7,2.4-5.9,2.4c-4.3-0.2-7.6-3.7-7.4-8
	C140,61.1,143.2,57.8,147.3,57.7L147.3,57.7z"/>
<path class="st0" d="M163.1,69h-5.2l-1.3,3.8h-2.8l5.2-14.9h2.8l5.2,14.9h-2.8L163.1,69z M160.5,60.5c0,0-0.3,1.5-0.6,2.3l-1.3,4
	h3.9l-1.3-4C160.8,62,160.5,60.5,160.5,60.5L160.5,60.5z"/>
<path class="st0" d="M169,57.9h4.8c1-0.1,2,0.1,3,0.4c1.6,0.7,2.5,2.3,2.4,4.1c0.1,1.7-0.9,3.4-2.5,4.1l0,0c0.2,0.2,0.4,0.5,0.5,0.7
	l3.1,5.6h-3l-3-5.6h-2.6v5.6H169V57.9z M174.1,64.9c1.2,0.1,2.2-0.8,2.4-2c0-0.1,0-0.3,0-0.4c0-1.4-0.6-2.3-2.7-2.3h-2.1v4.7H174.1z
	"/>
<path class="st0" d="M185.9,60.3H181v-2.3h12.5v2.3h-4.9v12.6h-2.7L185.9,60.3z"/>
<path class="st0" d="M202.1,57.7c4.2-0.1,7.6,3.2,7.7,7.4c0,0.1,0,0.2,0,0.2c0.2,4.3-3.2,7.8-7.4,8s-7.8-3.2-8-7.4
	c0-0.2,0-0.4,0-0.6c0-4.2,3.3-7.6,7.5-7.6C201.9,57.7,202,57.7,202.1,57.7z M202.1,70.6c2.8-0.1,5-2.4,4.9-5.2c0-0.1,0-0.1,0-0.2
	c0.1-2.7-2-5-4.7-5.1s-5,2-5.1,4.7c0,0.1,0,0.3,0,0.4c-0.2,2.8,2,5.2,4.8,5.3C202,70.6,202,70.6,202.1,70.6z"/>
<path class="st0" d="M219.2,57.7c2-0.1,4,0.6,5.5,1.9l-1.3,2c-1.1-0.9-2.5-1.4-4-1.4c-2.7-0.2-5,1.9-5.1,4.5c0,0.2,0,0.4,0,0.6
	c-0.2,2.8,1.9,5.1,4.7,5.3c0.1,0,0.2,0,0.3,0c1.4,0,2.7-0.6,3.7-1.5v-1.8h-2.3V65h4.7v7.8h-2.3v-0.7c0-0.3,0-0.6,0-0.6l0,0
	c-1.2,1.1-2.7,1.6-4.3,1.6c-4.1,0-7.3-3.3-7.3-7.4c0-0.1,0-0.2,0-0.4c-0.1-4.2,3.2-7.6,7.3-7.7C218.9,57.7,219.1,57.7,219.2,57.7z"
	/>
<path class="st0" d="M228.5,57.9h4.8c1-0.1,2,0.1,3,0.4c1.6,0.7,2.5,2.3,2.4,4.1c0.1,1.7-0.9,3.4-2.5,4.1l0,0
	c0.2,0.2,0.4,0.5,0.5,0.7l3.1,5.6h-3l-3-5.6h-2.6v5.6h-2.7L228.5,57.9z M233.6,64.9c1.2,0.1,2.2-0.7,2.4-1.9c0-0.1,0-0.3,0-0.4
	c0-1.4-0.6-2.3-2.7-2.3h-2.1v4.7L233.6,64.9z"/>
<path class="st0" d="M249.7,69h-5.2l-1.3,3.8h-2.8l5.2-14.9h2.8l5.2,14.9H251L249.7,69z M247.1,60.5c0,0-0.3,1.5-0.6,2.3l-1.3,4h3.9
	l-1.3-4C247.4,62,247.1,60.5,247.1,60.5L247.1,60.5z"/>
<path class="st0" d="M255.7,57.9h5.8c2.5-0.1,4.6,1.9,4.7,4.4c0,0.2,0,0.3,0,0.5c0.2,2.5-1.8,4.7-4.3,4.9c-0.1,0-0.3,0-0.4,0h-3v5.1
	h-2.7L255.7,57.9z M260.9,65.3c1.3,0.1,2.4-0.9,2.5-2.2c0-0.1,0-0.3,0-0.4c0.1-1.3-0.8-2.4-2.1-2.5c-0.1,0-0.2,0-0.3,0h-2.6v5.1
	H260.9z"/>
<path class="st0" d="M268.6,57.9h2.7v6.3h6.8v-6.3h2.7v14.9h-2.7v-6.3h-6.8v6.3h-2.7V57.9z"/>
<path class="st0" d="M284.6,57.9h2.7v14.9h-2.7V57.9z"/>
<path class="st0" d="M291.1,57.9h8.9v2.3h-6.2v3.9h5v2.3h-5v4h6.5v2.3h-9.3L291.1,57.9z"/>
</svg>
