<svg xmlns="http://www.w3.org/2000/svg" viewBox="0 0 220 30"><defs><style>.a{fill:none;}.b{fill:#fff;}</style></defs><title>Fichier 4</title><rect class="a" x="146.75" width="73.25" height="30"/><path class="b" d="M114.64,10.79a.53.53,0,0,0-.51.24,2.62,2.62,0,0,0-.13,1.05v6.82a3.15,3.15,0,0,0,.13,1.12.48.48,0,0,0,.48.27.54.54,0,0,0,.54-.3,4.58,4.58,0,0,0,.14-1.46V12.08a2.68,2.68,0,0,0-.13-1A.53.53,0,0,0,114.64,10.79Z"/><path class="b" d="M92.35,10.79a.5.5,0,0,0-.5.28,4.25,4.25,0,0,0-.13,1.35v6.29A4.06,4.06,0,0,0,91.85,20a.48.48,0,0,0,.49.3.49.49,0,0,0,.5-.27A3.58,3.58,0,0,0,93,18.84V12.42a4.59,4.59,0,0,0-.12-1.35A.47.47,0,0,0,92.35,10.79Z"/><path class="b" d="M38.74,17.13a5,5,0,0,0-.16,1.45,4.17,4.17,0,0,0,.14,1.4.55.55,0,0,0,.56.32A.52.52,0,0,0,39.8,20a4,4,0,0,0,.12-1.3V15.88A3.16,3.16,0,0,0,38.74,17.13Z"/><path class="b" d="M61,10.79c-.29,0-.48.09-.54.27a5.55,5.55,0,0,0-.11,1.44v1h1.24v-1a5.16,5.16,0,0,0-.12-1.4A.46.46,0,0,0,61,10.79Z"/><path class="b" d="M28.5,10.79a.51.51,0,0,0-.54.32,5.63,5.63,0,0,0-.12,1.52V18.4A5.68,5.68,0,0,0,28,20a.52.52,0,0,0,.54.32q.41,0,.51-.29a5.75,5.75,0,0,0,.1-1.4v-6A7.15,7.15,0,0,0,29,11.06C29,10.88,28.79,10.79,28.5,10.79Z"/><path class="b" d="M130.91,17.13a5,5,0,0,0-.16,1.45,4.17,4.17,0,0,0,.14,1.4.55.55,0,0,0,.56.32A.52.52,0,0,0,132,20a4,4,0,0,0,.12-1.3V15.88A3.16,3.16,0,0,0,130.91,17.13Z"/><path class="b" d="M0,0V30H146.67V0ZM12.16,22.51H4.49v-17h7.37v3.4h-3v3.22h2.76v3.23H8.91V19.1h3.24ZM22,21a2.92,2.92,0,0,1-1.47,1.33,6,6,0,0,1-2.49.47,6.86,6.86,0,0,1-2.77-.5,3,3,0,0,1-1.58-1.37,6.05,6.05,0,0,1-.43-2.6v-.67H17v.88A4.68,4.68,0,0,0,17.17,20a.55.55,0,0,0,.56.34.76.76,0,0,0,.63-.23,1.71,1.71,0,0,0,.18-1,2.13,2.13,0,0,0-.23-1.25,19.83,19.83,0,0,0-2.47-1.49,5.47,5.47,0,0,1-2.28-1.91,4.66,4.66,0,0,1-.41-2A5.27,5.27,0,0,1,13.59,10a2.86,2.86,0,0,1,1.5-1.22,6.46,6.46,0,0,1,2.45-.43,7,7,0,0,1,2.36.35,3.62,3.62,0,0,1,1.49.93A2.49,2.49,0,0,1,22,10.67a7.88,7.88,0,0,1,.11,1.54V13H18.37v-.76A4,4,0,0,0,18.26,11q-.11-.26-.55-.26a.63.63,0,0,0-.54.24,1.17,1.17,0,0,0-.18.71,3.64,3.64,0,0,0,.09.94,1.49,1.49,0,0,0,.54.66,11.59,11.59,0,0,0,1.83,1,6.68,6.68,0,0,1,2.42,1.7,3.93,3.93,0,0,1,.58,2.32A5.83,5.83,0,0,1,22,21ZM33.37,18.3a11.21,11.21,0,0,1-.23,2.7,2.25,2.25,0,0,1-.92,1.28,2.91,2.91,0,0,1-1.69.48,3,3,0,0,1-1.46-.37,4,4,0,0,1-1.23-1.09v3.19H23.6V8.58h4.31l-.07,1.23a4,4,0,0,1,1.25-1.11,3.08,3.08,0,0,1,1.49-.37,2.8,2.8,0,0,1,1.71.53,2.22,2.22,0,0,1,.9,1.22,10.63,10.63,0,0,1,.18,2.35Zm10.8,4.21H40V21.26a2.74,2.74,0,0,1-1,1.12,2.77,2.77,0,0,1-1.46.37,3.58,3.58,0,0,1-2-.62q-.93-.62-.93-2.73V18.25a3.35,3.35,0,0,1,.49-2.13,7,7,0,0,1,2.45-1.32,7,7,0,0,0,2.24-1.1,2.94,2.94,0,0,0,.15-1.16,3.91,3.91,0,0,0-.16-1.42.56.56,0,0,0-.54-.33c-.29,0-.46.09-.54.28a5.62,5.62,0,0,0-.11,1.44V14h-4V13A6.6,6.6,0,0,1,35,10.54,3.45,3.45,0,0,1,36.47,9a5.62,5.62,0,0,1,2.92-.67,5.68,5.68,0,0,1,3.24.76A3,3,0,0,1,43.95,11a29.32,29.32,0,0,1,.22,4.56Zm6.66-11.42a.5.5,0,0,0-.5-.3.49.49,0,0,0-.49.26,3.35,3.35,0,0,0-.13,1.18V18.8a2.55,2.55,0,0,0,.19,1.12.6.6,0,0,0,.56.37A.57.57,0,0,0,51,19.9a4.67,4.67,0,0,0,.15-1.47V16.77H55a21.42,21.42,0,0,1-.12,2.5,4,4,0,0,1-.7,1.71,3.75,3.75,0,0,1-1.55,1.32,5.56,5.56,0,0,1-2.36.45,5.64,5.64,0,0,1-2.85-.61,3.38,3.38,0,0,1-1.48-1.72,8.9,8.9,0,0,1-.44-3.14v-4a7.71,7.71,0,0,1,.36-2.68A3.47,3.47,0,0,1,47.34,9a5.36,5.36,0,0,1,2.83-.71A5.42,5.42,0,0,1,53,9a3.44,3.44,0,0,1,1.56,1.77,9.24,9.24,0,0,1,.39,3H51V12.23A3.14,3.14,0,0,0,50.83,11.09Zm15,4.7H60.36v3A3.32,3.32,0,0,0,60.49,20a.53.53,0,0,0,.52.27.64.64,0,0,0,.65-.36,4,4,0,0,0,.16-1.4V16.69h4v1a9.29,9.29,0,0,1-.16,2,4.07,4.07,0,0,1-.76,1.48,3.7,3.7,0,0,1-1.52,1.18,5.87,5.87,0,0,1-2.3.39,6.69,6.69,0,0,1-2.37-.39,3.79,3.79,0,0,1-1.6-1.07,3.85,3.85,0,0,1-.79-1.49,9.66,9.66,0,0,1-.22-2.37V13.38a6.9,6.9,0,0,1,.49-2.88,3.38,3.38,0,0,1,1.62-1.62,5.7,5.7,0,0,1,2.58-.56A5.78,5.78,0,0,1,63.75,9a3.74,3.74,0,0,1,1.63,1.79,8.44,8.44,0,0,1,.47,3.14Zm20.29,6.72H82V13.42a11.47,11.47,0,0,0-.12-2.21.53.53,0,0,0-.56-.42.55.55,0,0,0-.58.42,10.51,10.51,0,0,0-.13,2.21v9.08H76.51V13.66a16.25,16.25,0,0,0-.1-2.46.5.5,0,0,0-.55-.41.64.64,0,0,0-.48.21.83.83,0,0,0-.22.53c0,.21,0,.65,0,1.32v9.66H71V8.58h4.19L75.14,9.9a3.41,3.41,0,0,1,1.18-1.18,3,3,0,0,1,1.55-.39A3,3,0,0,1,80.54,9.9a3.84,3.84,0,0,1,1.21-1.18,2.88,2.88,0,0,1,1.49-.39A2.93,2.93,0,0,1,85,8.85a2.31,2.31,0,0,1,.91,1.29,10.84,10.84,0,0,1,.2,2.47ZM97.2,16.88A14.31,14.31,0,0,1,97,19.63a3.85,3.85,0,0,1-.81,1.64,3.64,3.64,0,0,1-1.59,1.12,6.36,6.36,0,0,1-2.23.36A8,8,0,0,1,90,22.45a3.24,3.24,0,0,1-1.52-.93A3.68,3.68,0,0,1,87.71,20a11.35,11.35,0,0,1-.23-2.66V13.77a8.7,8.7,0,0,1,.42-3A3.49,3.49,0,0,1,89.41,9a5.31,5.31,0,0,1,2.79-.66,6.39,6.39,0,0,1,2.45.42A3.85,3.85,0,0,1,97,11.26a8.73,8.73,0,0,1,.21,2.2Zm11.15,5.63h-4.24V12.86a8.8,8.8,0,0,0-.1-1.75c-.06-.21-.24-.32-.52-.32a.53.53,0,0,0-.57.36,9.17,9.17,0,0,0-.12,1.94v9.42H98.57V8.58h4.31l-.07,1.28a3.18,3.18,0,0,1,1.13-1.15,3,3,0,0,1,1.54-.38,2.91,2.91,0,0,1,1.78.51,2.28,2.28,0,0,1,.89,1.3,11.87,11.87,0,0,1,.2,2.61Zm11.18,0H115.3v-1a4.41,4.41,0,0,1-1.28.95,3.27,3.27,0,0,1-1.41.32,2.85,2.85,0,0,1-1.71-.52A2.32,2.32,0,0,1,110,21a8.55,8.55,0,0,1-.21-2.23V12.29A8.75,8.75,0,0,1,110,10a2.26,2.26,0,0,1,.94-1.18,3,3,0,0,1,1.75-.51,3.47,3.47,0,0,1,2.63,1.14V5.51h4.24Zm5.88,0H121V8.58h4.37Zm0-14.78H121V5.51h4.37Zm10.92,14.78h-4.13V21.26a2.74,2.74,0,0,1-1,1.12,2.77,2.77,0,0,1-1.46.37,3.58,3.58,0,0,1-2-.62q-.93-.62-.93-2.73V18.25a3.35,3.35,0,0,1,.49-2.13,7,7,0,0,1,2.45-1.32,7,7,0,0,0,2.24-1.1,2.94,2.94,0,0,0,.15-1.16,3.91,3.91,0,0,0-.16-1.42.56.56,0,0,0-.54-.33c-.29,0-.46.09-.54.28a5.62,5.62,0,0,0-.11,1.44V14h-4V13a6.6,6.6,0,0,1,.37-2.49A3.45,3.45,0,0,1,128.64,9a5.62,5.62,0,0,1,2.92-.67,5.68,5.68,0,0,1,3.24.76A3,3,0,0,1,136.11,11a29.32,29.32,0,0,1,.22,4.56Zm5.84,0h-4.37v-17h4.37Z"/><path class="b" d="M159.6,21.62q-.64.4-1.12.68a9.79,9.79,0,0,1-.88.45,4.15,4.15,0,0,1-.73.25,2.93,2.93,0,0,1-.66.08.81.81,0,0,1-.65-.39,1.94,1.94,0,0,1-.29-1.15,10.18,10.18,0,0,1,.1-1.1q.1-.78.25-1.85t.36-2.37l.41-2.64.41-2.67q.2-1.32.36-2.46t.25-2a13,13,0,0,0,.1-1.33,1.56,1.56,0,0,0-.06-.47.61.61,0,0,0-.15-.26.45.45,0,0,0-.21-.11l-.24,0a1.47,1.47,0,0,0-.33.06l-.45.12-.57.17-.19-.51,1.1-.47,1-.39.84-.27a2.21,2.21,0,0,1,.53-.1.75.75,0,0,1,.58.23,1.24,1.24,0,0,1,.21.83,13.67,13.67,0,0,1-.1,1.4q-.1.89-.25,2t-.36,2.46q-.21,1.32-.41,2.66T158,15.13q-.21,1.3-.36,2.42t-.25,2a12.2,12.2,0,0,0-.1,1.29,1.05,1.05,0,0,0,.12.6.39.39,0,0,0,.33.16,2.79,2.79,0,0,0,.69-.1,10.15,10.15,0,0,0,1-.32Z"/><path class="b" d="M165.14,5.4a3.41,3.41,0,0,1-.29,1.36,6.87,6.87,0,0,1-.74,1.3,8.53,8.53,0,0,1-1,1.15,12.54,12.54,0,0,1-1.06.92l-.45-.45a6.54,6.54,0,0,0,.5-.57,7,7,0,0,0,.5-.73A5.28,5.28,0,0,0,163,7.6a2,2,0,0,0,.16-.73,1,1,0,0,0-.34-.81,1.39,1.39,0,0,0-1-.28l-.12-.58a2.19,2.19,0,0,1,.51-.36q.36-.21.78-.4a7.47,7.47,0,0,1,.82-.31,1.82,1.82,0,0,1,.6-.11,1.82,1.82,0,0,1,.56.58A1.58,1.58,0,0,1,165.14,5.4Z"/><path class="b" d="M167,16.8l-1.85,4.32a.38.38,0,0,0,.2.58,5.42,5.42,0,0,0,1.38.3l-.08.56h-4.91l.08-.56a9.26,9.26,0,0,0,1.31-.33,1.07,1.07,0,0,0,.66-.55L170.1,6.62a3.77,3.77,0,0,1,.4-.32L171,6l.47-.29.4-.23,2.8,15.64a1,1,0,0,0,.1.32.71.71,0,0,0,.23.25,1.43,1.43,0,0,0,.42.19,4.39,4.39,0,0,0,.68.13l-.05.56h-5l.05-.56a3.76,3.76,0,0,0,1.32-.27.53.53,0,0,0,.32-.62L172,16.8Zm4.77-1.18-1.22-7.05-3,7.05Z"/><path class="b" d="M183.79,21a13.37,13.37,0,0,1-1.27.88,11.58,11.58,0,0,1-1.21.65,7.94,7.94,0,0,1-1,.4,2.75,2.75,0,0,1-.74.14,1.08,1.08,0,0,1-.61-.19,1.87,1.87,0,0,1-.52-.54,2.83,2.83,0,0,1-.35-.82,4,4,0,0,1-.13-1c0-.16,0-.33,0-.49s0-.34,0-.51,0-.36.05-.56.05-.42.08-.66l1-6.26h-1.86l-.19-.41,1.31-.77h.93l.08-.45c.05-.35.1-.65.16-.88a3,3,0,0,1,.19-.58,1.65,1.65,0,0,1,.24-.38,2,2,0,0,1,.3-.28l1.31-.93.36.32a1.54,1.54,0,0,0-.19.41c-.06.17-.13.42-.21.74s-.17.74-.25,1.28l-.12.75h3.23l.26.37a2.93,2.93,0,0,1-.36.4q-.23.22-.47.41l-.47.36-.34.23a.74.74,0,0,0-.21-.29,1,1,0,0,0-.37-.18,3.06,3.06,0,0,0-.58-.09q-.34,0-.82,0h0L180,17.93c0,.16-.05.34-.07.52s0,.36-.05.53,0,.33,0,.47,0,.26,0,.35a2,2,0,0,0,.29,1.18.83.83,0,0,0,.66.38,4,4,0,0,0,1.11-.19,13.22,13.22,0,0,0,1.63-.64Z"/><path class="b" d="M189.67,21.62q-.64.4-1.12.68a9.79,9.79,0,0,1-.88.45,4.15,4.15,0,0,1-.73.25,2.93,2.93,0,0,1-.66.08.81.81,0,0,1-.65-.39,1.94,1.94,0,0,1-.29-1.15,10.18,10.18,0,0,1,.1-1.1q.1-.78.25-1.85t.36-2.37l.41-2.64.41-2.67q.2-1.32.36-2.46t.25-2a13,13,0,0,0,.1-1.33,1.56,1.56,0,0,0-.06-.47.61.61,0,0,0-.15-.26.45.45,0,0,0-.21-.11l-.24,0a1.47,1.47,0,0,0-.33.06l-.45.12-.57.17-.19-.51,1.1-.47,1-.39.84-.27a2.21,2.21,0,0,1,.53-.1.75.75,0,0,1,.58.23,1.24,1.24,0,0,1,.21.83,13.67,13.67,0,0,1-.1,1.4q-.1.89-.25,2t-.36,2.46q-.21,1.32-.41,2.66t-.41,2.65q-.21,1.3-.36,2.42t-.25,2a12.2,12.2,0,0,0-.1,1.29,1.05,1.05,0,0,0,.12.6.39.39,0,0,0,.33.16,2.79,2.79,0,0,0,.69-.1,10.15,10.15,0,0,0,1-.32Z"/><path class="b" d="M201.68,21.67a17.54,17.54,0,0,1-1.82,1.07,2.72,2.72,0,0,1-1.07.34.73.73,0,0,1-.45-.16,1.36,1.36,0,0,1-.38-.61,5.55,5.55,0,0,1-.27-1.24,17.32,17.32,0,0,1-.1-2q-.34.6-.82,1.3a12.53,12.53,0,0,1-1,1.32,6.75,6.75,0,0,1-1.15,1,1.8,1.8,0,0,1-2,.16,2.63,2.63,0,0,1-.9-.78,4.62,4.62,0,0,1-.68-1.39,6.81,6.81,0,0,1-.27-2.07,8.36,8.36,0,0,1,.24-2,7.93,7.93,0,0,1,.72-1.87,8.77,8.77,0,0,1,1.17-1.68,8.51,8.51,0,0,1,1.61-1.41,8.42,8.42,0,0,1,.77-.45,7.78,7.78,0,0,1,.87-.39,7.3,7.3,0,0,1,.89-.27,3.7,3.7,0,0,1,.84-.1,2,2,0,0,1,.53.07,3.1,3.1,0,0,1,.51.19,4.63,4.63,0,0,1,.47.25l.41.27a6.65,6.65,0,0,1,.64-.41q.34-.19.69-.36l.26.45c-.15.12-.27.23-.36.32a1.63,1.63,0,0,0-.25.33,2,2,0,0,0-.19.46q-.08.27-.17.71-.19.93-.37,1.91t-.3,1.85q-.12.87-.19,1.53c0,.44-.07.76-.07.95q0,.74,0,1.24a5.34,5.34,0,0,0,.12.81,1.13,1.13,0,0,0,.19.44.35.35,0,0,0,.27.14,3.23,3.23,0,0,0,.62-.07,4.66,4.66,0,0,0,.87-.29ZM197.8,17q.09-.58.2-1.21t.22-1.21q.11-.58.19-1.07l.14-.77-.43-.32a4.42,4.42,0,0,0-.5-.3,3.17,3.17,0,0,0-.56-.22,2.16,2.16,0,0,0-.6-.08,2.27,2.27,0,0,0-1.12.29,3.94,3.94,0,0,0-1,.77,6,6,0,0,0-.8,1.1,8.54,8.54,0,0,0-.6,1.27,9.07,9.07,0,0,0-.38,1.29,5.49,5.49,0,0,0-.14,1.14,7.38,7.38,0,0,0,.14,1.52,4.6,4.6,0,0,0,.39,1.15,2.15,2.15,0,0,0,.58.74,1.17,1.17,0,0,0,.73.26,1.27,1.27,0,0,0,.76-.4,7.52,7.52,0,0,0,.93-1,17,17,0,0,0,1-1.4Q197.43,17.72,197.8,17Z"/><path class="b" d="M211.48,11.61q-.26.3-.51.54l-.47.42a2.8,2.8,0,0,1-.4.28.63.63,0,0,1-.27.1.5.5,0,0,1-.36-.23l-.43-.49a3.44,3.44,0,0,0-.56-.49,1.25,1.25,0,0,0-.74-.23,2,2,0,0,0-.71.14,2.16,2.16,0,0,0-.63.38,1.9,1.9,0,0,0-.45.58,1.65,1.65,0,0,0-.17.76,1.51,1.51,0,0,0,.43,1,4.31,4.31,0,0,0,1.48,1,10.88,10.88,0,0,1,1.06.57,5.08,5.08,0,0,1,.95.75,3.6,3.6,0,0,1,.69,1,2.75,2.75,0,0,1,.27,1.23,3.27,3.27,0,0,1-.46,1.68A4.92,4.92,0,0,1,209,21.85a5.8,5.8,0,0,1-1.6.91,4.88,4.88,0,0,1-1.72.33,4.28,4.28,0,0,1-1.21-.17,4.74,4.74,0,0,1-1.06-.45,3.19,3.19,0,0,1-.76-.59.91.91,0,0,1-.29-.59,1,1,0,0,1,.16-.41,4.39,4.39,0,0,1,.8-1,.61.61,0,0,1,.36-.2c.06,0,.12.05.19.16l.25.4q.15.24.36.52a2.59,2.59,0,0,0,.52.53,2.9,2.9,0,0,0,.73.4,2.74,2.74,0,0,0,1,.16,2.15,2.15,0,0,0,.86-.17,2.38,2.38,0,0,0,.71-.47,2.15,2.15,0,0,0,.48-.69,2.08,2.08,0,0,0,.17-.85,2,2,0,0,0-.21-.91,2.76,2.76,0,0,0-.55-.74,4.38,4.38,0,0,0-.8-.6,10.7,10.7,0,0,0-.95-.51,8.06,8.06,0,0,1-1.15-.65,3.9,3.9,0,0,1-.75-.66,2.14,2.14,0,0,1-.41-.71,2.52,2.52,0,0,1-.12-.79,2.84,2.84,0,0,1,.4-1.49,4.11,4.11,0,0,1,1-1.16,5,5,0,0,1,1.42-.75,4.81,4.81,0,0,1,1.55-.27,3.47,3.47,0,0,1,1.12.16,4.12,4.12,0,0,1,.8.36,7.1,7.1,0,0,1,.6.4A1.64,1.64,0,0,0,211.48,11.61Z"/></svg>