<?xml version="1.0" encoding="utf-8"?>
<!-- Generator: Adobe Illustrator 22.0.1, SVG Export Plug-In . SVG Version: 6.00 Build 0)  -->
<svg version="1.1" id="Calque_1" xmlns="http://www.w3.org/2000/svg" xmlns:xlink="http://www.w3.org/1999/xlink" x="0px" y="0px"
	 viewBox="0 0 220 30" style="enable-background:new 0 0 220 30;" xml:space="preserve">
<style type="text/css">
	.st0{fill:none;}
	.st1{fill:#FFFFFF;}
</style>
<g>
	<rect x="146.7" class="st0" width="73.3" height="30"/>
	<g>
		<path class="st1" d="M114.6,10.8c-0.3,0-0.4,0.1-0.5,0.2s-0.1,0.5-0.1,1.1v6.8c0,0.6,0,0.9,0.1,1.1s0.2,0.3,0.5,0.3
			s0.5-0.1,0.5-0.3c0.1-0.2,0.1-0.7,0.1-1.5v-6.4c0-0.5,0-0.9-0.1-1C115.1,10.9,114.9,10.8,114.6,10.8z"/>
		<path class="st1" d="M92.4,10.8c-0.3,0-0.4,0.1-0.5,0.3s-0.1,0.6-0.1,1.3v6.3c0,0.7,0,1.1,0.1,1.3c0.1,0.2,0.2,0.3,0.5,0.3
			s0.4-0.1,0.5-0.3c0.1-0.2,0.1-0.6,0.1-1.2v-6.4c0-0.7,0-1.2-0.1-1.3C92.8,10.9,92.6,10.8,92.4,10.8z"/>
		<path class="st1" d="M38.7,17.1c-0.1,0.3-0.2,0.8-0.2,1.4c0,0.7,0,1.2,0.1,1.4c0.1,0.2,0.3,0.3,0.6,0.3s0.4-0.1,0.5-0.2
			c0.1-0.2,0.1-0.6,0.1-1.3v-2.9C39.2,16.4,38.9,16.8,38.7,17.1z"/>
		<path class="st1" d="M61,10.8c-0.3,0-0.5,0.1-0.5,0.3c-0.1,0.2-0.1,0.7-0.1,1.4v1h1.2v-1c0-0.7,0-1.2-0.1-1.4
			C61.4,10.9,61.2,10.8,61,10.8z"/>
		<path class="st1" d="M28.5,10.8c-0.3,0-0.5,0.1-0.5,0.3c-0.1,0.2-0.1,0.7-0.1,1.5v5.8c0,0.8,0,1.4,0.1,1.6s0.3,0.3,0.5,0.3
			c0.3,0,0.4-0.1,0.5-0.3s0.1-0.7,0.1-1.4v-6c0-0.9,0-1.4-0.1-1.6C29,10.9,28.8,10.8,28.5,10.8z"/>
		<path class="st1" d="M130.9,17.1c-0.1,0.3-0.2,0.8-0.2,1.4c0,0.7,0,1.2,0.1,1.4c0.1,0.2,0.3,0.3,0.6,0.3s0.4-0.1,0.5-0.2
			c0.1-0.2,0.1-0.6,0.1-1.3v-2.9C131.4,16.4,131,16.8,130.9,17.1z"/>
		<path class="st1" d="M0,0v30h146.7V0H0z M12.2,22.5H4.5v-17h7.4v3.4h-3v3.2h2.8v3.2H8.9V19h3.2v3.5H12.2z M22,21
			c-0.3,0.6-0.8,1-1.5,1.3S19,22.8,18,22.8c-1.1,0-2-0.2-2.8-0.5s-1.3-0.8-1.6-1.4s-0.4-1.4-0.4-2.6v-0.7H17v0.9
			c0,0.7,0,1.2,0.1,1.5c0.1,0.2,0.3,0.3,0.6,0.3c0.3,0,0.5-0.1,0.6-0.2c0.1-0.2,0.2-0.5,0.2-1c0-0.7-0.1-1.1-0.2-1.2
			c-0.2-0.2-1-0.7-2.5-1.5c-1.2-0.7-2-1.3-2.3-1.9s-0.4-1.2-0.4-2c0-1.1,0.1-1.9,0.4-2.5c0.3-0.5,0.8-0.9,1.5-1.2s1.5-0.4,2.5-0.4
			c0.9,0,1.7,0.1,2.4,0.4C20.5,9,21,9.3,21.4,9.7c0.3,0.4,0.6,0.7,0.6,1.1c0.1,0.3,0.1,0.8,0.1,1.5V13h-3.8v-0.8
			c0-0.6,0-1.1-0.1-1.2c-0.1-0.2-0.3-0.3-0.6-0.3c-0.2,0-0.4,0.1-0.5,0.2S17,11.4,17,11.7c0,0.4,0,0.7,0.1,0.9s0.2,0.4,0.5,0.7
			c0.3,0.2,0.9,0.6,1.8,1c1.2,0.6,2,1.2,2.4,1.7c0.4,0.5,0.6,1.3,0.6,2.3C22.5,19.5,22.3,20.4,22,21z M33.4,18.3
			c0,1.3-0.1,2.2-0.2,2.7c-0.2,0.5-0.5,1-0.9,1.3s-1,0.5-1.7,0.5c-0.5,0-1-0.1-1.5-0.4s-0.9-0.6-1.2-1.1v3.2h-4.2V8.6H28l-0.1,1.2
			c0.4-0.5,0.8-0.9,1.2-1.1c0.5-0.2,1-0.4,1.5-0.4c0.7,0,1.2,0.2,1.7,0.5c0.5,0.4,0.8,0.8,0.9,1.2s0.2,1.2,0.2,2.4
			C33.4,12.4,33.4,18.3,33.4,18.3z M44.2,22.5H40v-1.2c-0.3,0.5-0.6,0.9-1,1.1s-0.9,0.4-1.5,0.4c-0.7,0-1.4-0.2-2-0.6
			s-0.9-1.3-0.9-2.7v-1.1c0-1,0.2-1.8,0.5-2.1c0.3-0.4,1.1-0.8,2.4-1.3c1.4-0.5,2.1-0.9,2.2-1.1c0.1-0.2,0.1-0.6,0.1-1.2
			c0-0.7-0.1-1.2-0.2-1.4c-0.1-0.2-0.3-0.3-0.5-0.3c-0.3,0-0.5,0.1-0.5,0.3s-0.1,0.7-0.1,1.4V14h-4v-1c0-1.1,0.1-1.9,0.4-2.5
			c0.2-0.6,0.7-1.1,1.5-1.5c0.7-0.4,1.7-0.7,2.9-0.7c1.4,0,2.5,0.3,3.2,0.8s1.2,1.1,1.3,1.9s0.2,2.3,0.2,4.6v6.9H44.2z M50.8,11.1
			c-0.1-0.2-0.3-0.3-0.5-0.3s-0.4,0.1-0.5,0.3s-0.1,0.6-0.1,1.2v6.6c0,0.5,0.1,0.9,0.2,1.1c0.1,0.2,0.3,0.4,0.6,0.4s0.5-0.1,0.6-0.4
			s0.2-0.7,0.2-1.5v-1.7H55c0,1.1,0,1.9-0.1,2.5s-0.3,1.1-0.7,1.7s-0.9,1-1.5,1.3s-1.4,0.4-2.4,0.4c-1.2,0-2.1-0.2-2.8-0.6
			s-1.2-1-1.5-1.7s-0.4-1.8-0.4-3.1v-4c0-1.2,0.1-2.1,0.4-2.7c0.2-0.6,0.7-1.1,1.5-1.6s1.7-0.7,2.8-0.7s2.1,0.2,2.8,0.7
			c0.8,0.5,1.3,1.1,1.6,1.8s0.4,1.7,0.4,3h-4v-1.6C51,11.7,50.9,11.3,50.8,11.1z M65.8,15.8h-5.5v3c0,0.6,0,1,0.1,1.2
			s0.3,0.3,0.5,0.3c0.3,0,0.5-0.1,0.6-0.4c0.1-0.2,0.2-0.7,0.2-1.4v-1.8h4v1c0,0.9-0.1,1.5-0.2,2s-0.4,1-0.8,1.5s-0.9,0.9-1.5,1.2
			c-0.6,0.3-1.4,0.4-2.3,0.4c-0.9,0-1.7-0.1-2.4-0.4s-1.2-0.6-1.6-1.1s-0.6-0.9-0.8-1.5c-0.1-0.5-0.2-1.3-0.2-2.4v-4.1
			c0-1.2,0.2-2.2,0.5-2.9s0.9-1.2,1.6-1.6c0.7-0.4,1.6-0.6,2.6-0.6C62,8.3,63,8.5,63.8,9s1.3,1,1.6,1.8c0.3,0.7,0.5,1.8,0.5,3.1
			L65.8,15.8L65.8,15.8z M86.1,22.5H82v-9.1c0-1.2,0-1.9-0.1-2.2s-0.3-0.4-0.6-0.4c-0.3,0-0.5,0.1-0.6,0.4s-0.1,1-0.1,2.2v9.1h-4.1
			v-8.8c0-1.4,0-2.2-0.1-2.5s-0.2-0.4-0.6-0.4c-0.2,0-0.4,0.1-0.5,0.2c-0.1,0.1-0.2,0.3-0.2,0.5s0,0.6,0,1.3v9.7H71V8.6h4.2
			l-0.1,1.3c0.3-0.5,0.7-0.9,1.2-1.2s1-0.4,1.6-0.4c1.1,0,2,0.5,2.7,1.6C81,9.4,81.4,9,81.8,8.7c0.4-0.3,0.9-0.4,1.5-0.4
			c0.7,0,1.3,0.2,1.8,0.5c0.5,0.4,0.8,0.8,0.9,1.3s0.2,1.3,0.2,2.5L86.1,22.5L86.1,22.5z M97.2,16.9c0,1.3-0.1,2.2-0.2,2.8
			c-0.1,0.6-0.4,1.1-0.8,1.6s-0.9,0.9-1.6,1.1s-1.4,0.4-2.2,0.4c-0.9,0-1.7-0.1-2.4-0.3c-0.7-0.2-1.2-0.5-1.5-0.9
			c-0.4-0.4-0.6-0.9-0.8-1.5c-0.2-0.6-0.2-1.5-0.2-2.7v-3.6c0-1.3,0.1-2.3,0.4-3s0.8-1.3,1.5-1.8c0.7-0.4,1.7-0.7,2.8-0.7
			c1,0,1.8,0.1,2.5,0.4c0.7,0.3,1.2,0.7,1.6,1.1c0.4,0.5,0.6,0.9,0.8,1.4c0.1,0.5,0.2,1.2,0.2,2.2v3.5H97.2z M108.4,22.5h-4.2v-9.6
			c0-1,0-1.5-0.1-1.8c-0.1-0.2-0.2-0.3-0.5-0.3s-0.5,0.1-0.6,0.4c-0.1,0.2-0.1,0.9-0.1,1.9v9.4h-4.2V8.6h4.3l-0.1,1.3
			c0.3-0.5,0.7-0.9,1.1-1.2s1-0.4,1.5-0.4c0.7,0,1.3,0.2,1.8,0.5s0.8,0.8,0.9,1.3s0.2,1.4,0.2,2.6L108.4,22.5L108.4,22.5z
			 M119.5,22.5h-4.2v-1c-0.4,0.4-0.8,0.7-1.3,0.9c-0.4,0.2-0.9,0.3-1.4,0.3c-0.7,0-1.2-0.2-1.7-0.5s-0.8-0.7-0.9-1.2
			s-0.2-1.2-0.2-2.2v-6.5c0-1.1,0.1-1.8,0.2-2.3c0.1-0.4,0.4-0.8,0.9-1.2c0.5-0.3,1.1-0.5,1.8-0.5c0.5,0,1,0.1,1.4,0.3
			s0.8,0.5,1.2,0.9v-4h4.2V22.5z M125.4,22.5H121V8.6h4.4V22.5z M125.4,7.7H121V5.5h4.4V7.7z M136.3,22.5h-4.1v-1.2
			c-0.3,0.5-0.6,0.9-1,1.1s-0.9,0.4-1.5,0.4c-0.7,0-1.4-0.2-2-0.6c-0.6-0.4-0.9-1.3-0.9-2.7v-1.1c0-1,0.2-1.8,0.5-2.1
			c0.3-0.4,1.1-0.8,2.4-1.3c1.4-0.5,2.1-0.9,2.2-1.1c0.1-0.2,0.1-0.6,0.1-1.2c0-0.7-0.1-1.2-0.2-1.4c-0.1-0.2-0.3-0.3-0.5-0.3
			c-0.3,0-0.5,0.1-0.5,0.3s-0.1,0.7-0.1,1.4V14h-4v-1c0-1.1,0.1-1.9,0.4-2.5c0.2-0.6,0.7-1.1,1.5-1.5c0.7-0.4,1.7-0.7,2.9-0.7
			c1.4,0,2.5,0.3,3.2,0.8s1.2,1.1,1.3,1.9s0.2,2.3,0.2,4.6v6.9H136.3z M142.2,22.5h-4.4v-17h4.4V22.5z"/>
	</g>
	<g>
		<path class="st1" d="M159.6,21.6c-0.4,0.3-0.8,0.5-1.1,0.7s-0.6,0.3-0.9,0.5c-0.3,0.1-0.5,0.2-0.7,0.3c-0.2,0.1-0.4,0.1-0.7,0.1
			c-0.2,0-0.5-0.1-0.6-0.4c-0.2-0.3-0.3-0.6-0.3-1.2c0-0.2,0-0.6,0.1-1.1s0.1-1.1,0.3-1.9c0.1-0.7,0.2-1.5,0.4-2.4
			c0.1-0.9,0.3-1.7,0.4-2.6c0.1-0.9,0.3-1.8,0.4-2.7s0.3-1.7,0.4-2.5c0.1-0.8,0.2-1.4,0.3-2s0.1-1,0.1-1.3c0-0.2,0-0.4-0.1-0.5
			c0-0.1-0.1-0.2-0.1-0.3s-0.1-0.1-0.2-0.1c-0.1,0-0.2,0-0.2,0c-0.1,0-0.2,0-0.3,0.1c-0.2,0-0.3,0.1-0.4,0.1
			c-0.2,0.1-0.4,0.1-0.6,0.2l-0.2-0.5c0.4-0.2,0.7-0.3,1.1-0.5c0.4-0.1,0.7-0.3,1-0.4c0.3-0.1,0.6-0.2,0.8-0.3s0.4-0.1,0.5-0.1
			c0.2,0,0.4,0.1,0.6,0.2c0.1,0.2,0.2,0.4,0.2,0.8c0,0.3,0,0.8-0.1,1.4s-0.1,1.3-0.3,2c-0.1,0.8-0.2,1.6-0.4,2.5
			c-0.1,0.9-0.3,1.8-0.4,2.7c-0.1,0.9-0.3,1.8-0.4,2.7c-0.1,0.9-0.3,1.7-0.4,2.4c-0.1,0.7-0.2,1.4-0.3,2s-0.1,1-0.1,1.3
			s0,0.5,0.1,0.6s0.2,0.2,0.3,0.2c0.2,0,0.4,0,0.7-0.1s0.6-0.2,1-0.3L159.6,21.6z"/>
		<path class="st1" d="M165.1,5.4c0,0.4-0.1,0.9-0.3,1.4s-0.4,0.9-0.7,1.3c-0.3,0.4-0.6,0.8-1,1.2s-0.7,0.7-1.1,0.9l-0.5-0.5
			c0.2-0.2,0.3-0.3,0.5-0.6c0.2-0.2,0.3-0.5,0.5-0.7s0.3-0.5,0.4-0.8s0.2-0.5,0.2-0.7c0-0.3-0.1-0.6-0.3-0.8s-0.6-0.3-1-0.3
			l-0.1-0.6c0.1-0.1,0.3-0.2,0.5-0.4c0.2-0.1,0.5-0.3,0.8-0.4s0.6-0.2,0.8-0.3C164,4,164.2,4,164.4,4c0.2,0.2,0.4,0.4,0.6,0.6
			C165.1,4.8,165.1,5.1,165.1,5.4z"/>
		<path class="st1" d="M167,16.8l-1.9,4.3c-0.1,0.3-0.1,0.5,0.2,0.6s0.7,0.2,1.4,0.3l-0.1,0.6h-4.9l0.1-0.6c0.5-0.1,1-0.2,1.3-0.3
			c0.3-0.1,0.5-0.3,0.7-0.6l6.3-14.5c0.1-0.1,0.2-0.2,0.4-0.3c0.2-0.1,0.3-0.2,0.5-0.3c0.2-0.1,0.3-0.2,0.5-0.3
			c0.2-0.1,0.3-0.2,0.4-0.2l2.8,15.6c0,0.1,0.1,0.2,0.1,0.3c0,0.1,0.1,0.2,0.2,0.2c0.1,0.1,0.2,0.1,0.4,0.2s0.4,0.1,0.7,0.1
			l-0.1,0.6h-5l0.1-0.6c0.6,0,1.1-0.1,1.3-0.3c0.3-0.1,0.4-0.3,0.3-0.6l-0.8-4.3L167,16.8L167,16.8z M171.8,15.6l-1.2-7.1l-3,7.1
			H171.8z"/>
		<path class="st1" d="M183.8,21c-0.4,0.3-0.8,0.6-1.3,0.9c-0.4,0.3-0.8,0.5-1.2,0.6c-0.4,0.2-0.7,0.3-1,0.4s-0.6,0.1-0.7,0.1
			c-0.2,0-0.4-0.1-0.6-0.2c-0.2-0.1-0.4-0.3-0.5-0.5c-0.2-0.2-0.3-0.5-0.4-0.8c-0.1-0.3-0.1-0.7-0.1-1c0-0.2,0-0.3,0-0.5
			s0-0.3,0-0.5s0-0.4,0.1-0.6c0-0.2,0.1-0.4,0.1-0.7l1-6.3h-1.9l-0.2-0.4l1.3-0.8h0.9l0.1-0.5c0.1-0.4,0.1-0.6,0.2-0.9
			c0.1-0.2,0.1-0.4,0.2-0.6c0.1-0.2,0.2-0.3,0.2-0.4c0.1-0.1,0.2-0.2,0.3-0.3l1.3-0.9l0.4,0.3c-0.1,0.1-0.1,0.2-0.2,0.4
			c-0.1,0.2-0.1,0.4-0.2,0.7c-0.1,0.3-0.2,0.7-0.3,1.3l-0.1,0.7h3.2l0.3,0.4c-0.1,0.1-0.2,0.3-0.4,0.4c-0.2,0.1-0.3,0.3-0.5,0.4
			s-0.3,0.2-0.5,0.4c-0.2,0.1-0.3,0.2-0.3,0.2c-0.1-0.1-0.1-0.2-0.2-0.3c-0.1-0.1-0.2-0.1-0.4-0.2c-0.2,0-0.3-0.1-0.6-0.1
			c-0.2,0-0.5,0-0.8,0l0,0l-0.9,5.9c0,0.2-0.1,0.3-0.1,0.5s0,0.4-0.1,0.5c0,0.2,0,0.3,0,0.5s0,0.3,0,0.3c0,0.5,0.1,0.9,0.3,1.2
			c0.2,0.3,0.4,0.4,0.7,0.4s0.7-0.1,1.1-0.2c0.4-0.1,1-0.3,1.6-0.6L183.8,21z"/>
		<path class="st1" d="M189.7,21.6c-0.4,0.3-0.8,0.5-1.1,0.7s-0.6,0.3-0.9,0.5c-0.3,0.1-0.5,0.2-0.7,0.3c-0.2,0.1-0.4,0.1-0.7,0.1
			c-0.2,0-0.5-0.1-0.6-0.4c-0.2-0.3-0.3-0.6-0.3-1.2c0-0.2,0-0.6,0.1-1.1s0.1-1.1,0.3-1.9c0.1-0.7,0.2-1.5,0.4-2.4
			c0.1-0.9,0.3-1.7,0.4-2.6c0.1-0.9,0.3-1.8,0.4-2.7s0.3-1.7,0.4-2.5s0.2-1.4,0.3-2s0.1-1,0.1-1.3c0-0.2,0-0.4-0.1-0.5
			c0-0.1-0.1-0.2-0.1-0.3s-0.1-0.1-0.2-0.1c-0.1,0-0.2,0-0.2,0c-0.1,0-0.2,0-0.3,0.1c-0.2,0-0.3,0.1-0.4,0.1
			c-0.2,0.1-0.4,0.1-0.6,0.2l-0.2-0.5c0.4-0.2,0.7-0.3,1.1-0.5c0.4-0.1,0.7-0.3,1-0.4c0.3-0.1,0.6-0.2,0.8-0.3s0.4-0.1,0.5-0.1
			c0.2,0,0.4,0.1,0.6,0.2c0.1,0.2,0.2,0.4,0.2,0.8c0,0.3,0,0.8-0.1,1.4s-0.1,1.3-0.3,2c-0.1,0.8-0.2,1.6-0.4,2.5
			c-0.1,0.9-0.3,1.8-0.4,2.7c-0.1,0.9-0.3,1.8-0.4,2.7c-0.1,0.9-0.3,1.7-0.4,2.4c-0.1,0.7-0.2,1.4-0.3,2s-0.1,1-0.1,1.3
			s0,0.5,0.1,0.6s0.2,0.2,0.3,0.2c0.2,0,0.4,0,0.7-0.1s0.6-0.2,1-0.3L189.7,21.6z"/>
		<path class="st1" d="M201.7,21.7c-0.8,0.5-1.4,0.9-1.8,1.1c-0.5,0.2-0.8,0.3-1.1,0.3c-0.2,0-0.3-0.1-0.4-0.2
			c-0.1-0.1-0.3-0.3-0.4-0.6c-0.1-0.3-0.2-0.7-0.3-1.2s-0.1-1.2-0.1-2c-0.2,0.4-0.5,0.8-0.8,1.3s-0.7,0.9-1,1.3
			c-0.4,0.4-0.8,0.8-1.1,1c-0.4,0.3-0.8,0.4-1.1,0.4s-0.6-0.1-0.9-0.2c-0.3-0.2-0.6-0.4-0.9-0.8c-0.3-0.4-0.5-0.8-0.7-1.4
			s-0.3-1.3-0.3-2.1c0-0.7,0.1-1.3,0.2-2c0.2-0.7,0.4-1.3,0.7-1.9c0.3-0.6,0.7-1.2,1.2-1.7s1-1,1.6-1.4c0.2-0.2,0.5-0.3,0.8-0.5
			c0.3-0.1,0.6-0.3,0.9-0.4c0.3-0.1,0.6-0.2,0.9-0.3c0.3-0.1,0.6-0.1,0.8-0.1s0.4,0,0.5,0.1c0.2,0,0.3,0.1,0.5,0.2
			c0.2,0.1,0.3,0.2,0.5,0.3c0.1,0.1,0.3,0.2,0.4,0.3c0.2-0.1,0.4-0.3,0.6-0.4c0.2-0.1,0.5-0.3,0.7-0.4l0.3,0.5
			c-0.1,0.1-0.3,0.2-0.4,0.3c-0.1,0.1-0.2,0.2-0.3,0.3s-0.1,0.3-0.2,0.5c-0.1,0.2-0.1,0.4-0.2,0.7c-0.1,0.6-0.3,1.3-0.4,1.9
			c-0.1,0.7-0.2,1.3-0.3,1.8c-0.1,0.6-0.1,1.1-0.2,1.5c0,0.4-0.1,0.8-0.1,0.9c0,0.5,0,0.9,0,1.2c0,0.3,0.1,0.6,0.1,0.8
			s0.1,0.3,0.2,0.4c0.1,0.1,0.2,0.1,0.3,0.1c0.2,0,0.4,0,0.6-0.1s0.5-0.1,0.9-0.3L201.7,21.7z M197.8,17c0.1-0.4,0.1-0.8,0.2-1.2
			c0.1-0.4,0.1-0.8,0.2-1.2c0.1-0.4,0.1-0.7,0.2-1.1c0.1-0.3,0.1-0.6,0.1-0.8c-0.1-0.1-0.3-0.2-0.4-0.3c-0.2-0.1-0.3-0.2-0.5-0.3
			s-0.4-0.2-0.6-0.2c-0.2-0.1-0.4-0.1-0.6-0.1c-0.4,0-0.8,0.1-1.1,0.3s-0.7,0.5-1,0.8s-0.6,0.7-0.8,1.1c-0.2,0.4-0.4,0.8-0.6,1.3
			c-0.2,0.4-0.3,0.9-0.4,1.3c-0.1,0.4-0.1,0.8-0.1,1.1c0,0.6,0,1.1,0.1,1.5s0.2,0.8,0.4,1.2c0.2,0.3,0.4,0.6,0.6,0.7
			c0.2,0.2,0.5,0.3,0.7,0.3s0.5-0.1,0.8-0.4s0.6-0.6,0.9-1c0.3-0.4,0.6-0.9,1-1.4C197.3,18,197.6,17.5,197.8,17z"/>
		<path class="st1" d="M211.5,11.6c-0.2,0.2-0.3,0.4-0.5,0.5c-0.2,0.2-0.3,0.3-0.5,0.4c-0.1,0.1-0.3,0.2-0.4,0.3
			c-0.1,0.1-0.2,0.1-0.3,0.1s-0.2-0.1-0.4-0.2s-0.3-0.3-0.4-0.5c-0.2-0.2-0.3-0.3-0.6-0.5c-0.2-0.2-0.5-0.2-0.7-0.2s-0.5,0-0.7,0.1
			s-0.4,0.2-0.6,0.4c-0.2,0.2-0.3,0.4-0.5,0.6c-0.1,0.2-0.2,0.5-0.2,0.8s0.1,0.6,0.4,1c0.3,0.3,0.8,0.7,1.5,1
			c0.4,0.2,0.7,0.4,1.1,0.6c0.4,0.2,0.7,0.5,0.9,0.7c0.3,0.3,0.5,0.6,0.7,1s0.3,0.8,0.3,1.2c0,0.6-0.2,1.2-0.5,1.7s-0.7,1-1.2,1.4
			s-1,0.7-1.6,0.9c-0.6,0.2-1.2,0.3-1.7,0.3c-0.4,0-0.8-0.1-1.2-0.2s-0.8-0.3-1.1-0.4c-0.3-0.2-0.6-0.4-0.8-0.6s-0.3-0.4-0.3-0.6
			c0-0.1,0.1-0.2,0.2-0.4c0.1-0.2,0.2-0.4,0.4-0.5c0.1-0.2,0.3-0.3,0.4-0.5c0.1-0.1,0.3-0.2,0.4-0.2c0.1,0,0.1,0.1,0.2,0.2
			c0.1,0.1,0.1,0.2,0.2,0.4c0.1,0.2,0.2,0.3,0.4,0.5c0.1,0.2,0.3,0.4,0.5,0.5c0.2,0.2,0.5,0.3,0.7,0.4c0.3,0.1,0.6,0.2,1,0.2
			c0.3,0,0.6-0.1,0.9-0.2c0.3-0.1,0.5-0.3,0.7-0.5s0.4-0.4,0.5-0.7c0.1-0.3,0.2-0.5,0.2-0.8s-0.1-0.6-0.2-0.9
			c-0.1-0.3-0.3-0.5-0.6-0.7c-0.2-0.2-0.5-0.4-0.8-0.6s-0.6-0.4-0.9-0.5c-0.5-0.2-0.8-0.4-1.2-0.6c-0.3-0.2-0.6-0.4-0.8-0.7
			c-0.2-0.2-0.3-0.5-0.4-0.7c-0.1-0.3-0.1-0.5-0.1-0.8c0-0.5,0.1-1,0.4-1.5c0.3-0.4,0.6-0.8,1-1.2c0.4-0.3,0.9-0.6,1.4-0.8
			s1-0.3,1.5-0.3c0.4,0,0.8,0.1,1.1,0.2c0.3,0.1,0.6,0.2,0.8,0.4s0.4,0.3,0.6,0.4C211.1,11.5,211.3,11.6,211.5,11.6z"/>
	</g>
</g>
</svg>
