<?xml version="1.0" encoding="utf-8"?>
<!-- Generator: Adobe Illustrator 20.0.0, SVG Export Plug-In . SVG Version: 6.00 Build 0)  -->
<svg version="1.1" id="Calque_1" xmlns="http://www.w3.org/2000/svg" xmlns:xlink="http://www.w3.org/1999/xlink" x="0px" y="0px"
	 width="283.5px" height="73px" viewBox="0 0 283.5 73" style="enable-background:new 0 0 283.5 73;" xml:space="preserve">
<style type="text/css">
	.st0{fill:#777777;}
</style>
<g>
	<path class="st0" d="M4.2,32.7c0,0,4.7,4.5,10.7,4.5c3.3,0,6.2-1.7,6.2-5.2c0-7.7-20.3-6.4-20.3-19.6C0.9,5.3,7.1,0,15.3,0
		c8.5,0,12.8,4.6,12.8,4.6L24.8,11c0,0-4.1-3.8-9.5-3.8c-3.6,0-6.5,2.1-6.5,5.1C8.8,20,29,18.1,29,31.9c0,6.8-5.2,12.6-14.2,12.6
		C5.3,44.4,0,38.6,0,38.6L4.2,32.7z"/>
	<path class="st0" d="M47.1,15.2c7.3,0,10.7,4.1,10.7,4.1l-3.1,4.7c0,0-2.9-3-7.3-3c-5.1,0-8.5,3.9-8.5,8.6c0,4.7,3.4,8.7,8.7,8.7
		c4.7,0,8.2-3.5,8.2-3.5l2.7,4.9c0,0-4,4.5-11.5,4.5c-9.2,0-15.1-6.5-15.1-14.6C32,21.9,37.9,15.2,47.1,15.2"/>
	<path class="st0" d="M62.6,5h6.9v6.2h-6.9V5z M62.6,15.9h6.9v27.8h-6.9V15.9z"/>
	<path class="st0" d="M88.3,15.2c8,0,12.3,5.8,12.3,13.2c0,0.8-0.2,2.7-0.2,2.7H81.3c0.4,4.9,4.2,7.4,8.4,7.4c4.5,0,8-3.1,8-3.1
		l2.7,5c0,0-4.3,4-11.2,4c-9.2,0-15-6.7-15-14.6C74.2,21.2,80,15.2,88.3,15.2 M93.7,26.4c-0.1-3.8-2.5-5.8-5.5-5.8
		c-3.5,0-6,2.2-6.7,5.8H93.7z"/>
	<path class="st0" d="M105.3,15.9h6.7v3.2c0,1-0.1,1.9-0.1,1.9h0.1c1.2-2.3,4.3-5.8,9.9-5.8c6.2,0,9.7,3.2,9.7,10.6v17.9h-6.9V27.2
		c0-3.4-0.9-5.7-4.4-5.7c-3.7,0-6.4,2.3-7.5,5.7c-0.4,1.1-0.5,2.4-0.5,3.7v12.8h-6.9V15.9z"/>
	<path class="st0" d="M150.8,15.2c7.3,0,10.7,4.1,10.7,4.1l-3.1,4.7c0,0-2.9-3-7.3-3c-5.1,0-8.5,3.9-8.5,8.6c0,4.7,3.4,8.7,8.7,8.7
		c4.7,0,8.2-3.5,8.2-3.5l2.7,4.9c0,0-4,4.5-11.5,4.5c-9.2,0-15.1-6.5-15.1-14.6C135.6,21.9,141.5,15.2,150.8,15.2"/>
	<path class="st0" d="M178.5,15.2c8,0,12.3,5.8,12.3,13.2c0,0.8-0.2,2.7-0.2,2.7h-19.2c0.4,4.9,4.2,7.4,8.4,7.4c4.5,0,8-3.1,8-3.1
		l2.7,5c0,0-4.3,4-11.2,4c-9.2,0-15-6.7-15-14.6C164.4,21.2,170.2,15.2,178.5,15.2 M183.8,26.4c-0.1-3.8-2.5-5.8-5.5-5.8
		c-3.5,0-6,2.2-6.7,5.8H183.8z"/>
	<path class="st0" d="M197.4,35.4c0,0,3.1,3.1,7.6,3.1c2,0,3.7-0.9,3.7-2.5c0-4.1-13.5-3.6-13.5-12.6c0-5.2,4.6-8.2,10.6-8.2
		c6.3,0,9.3,3.2,9.3,3.2l-2.6,5.1c0,0-2.6-2.4-6.8-2.4c-1.8,0-3.5,0.8-3.5,2.5c0,3.9,13.5,3.4,13.5,12.4c0,4.6-4,8.4-10.6,8.4
		c-6.9,0-10.8-4.1-10.8-4.1L197.4,35.4z"/>
	<path class="st0" d="M221.8,0.7h16.6c8.1,0,13.7,5.6,13.7,14c0,8.4-5.6,14.2-13.7,14.2h-8.8v14.8h-7.8V0.7z M236.9,22.1
		c4.5,0,7.2-2.9,7.2-7.4c0-4.4-2.7-7.3-7.1-7.3h-7.4v14.7H236.9z"/>
	<path class="st0" d="M268.1,15.2c8.5,0,15.3,6.1,15.3,14.6c0,8.6-6.8,14.6-15.3,14.6c-8.5,0-15.3-6-15.3-14.6
		C252.8,21.3,259.7,15.2,268.1,15.2 M268.2,38.5c4.5,0,8.2-3.5,8.2-8.7c0-5.1-3.8-8.7-8.2-8.7c-4.5,0-8.3,3.5-8.3,8.7
		C259.9,35,263.6,38.5,268.2,38.5"/>
	<path class="st0" d="M0.1,57.7h5.3c2.7,0,4.6,1.4,4.6,3.8c0,1.4-0.7,2.6-1.8,3.2v0c1.6,0.5,2.4,2,2.4,3.5c0,3-2.4,4.3-5.1,4.3H0.1
		V57.7z M5.4,63.8c1.2,0,1.8-0.8,1.8-1.9S6.6,60,5.4,60H2.8v3.8H5.4z M5.7,70.3c1.4,0,2.2-0.9,2.2-2.2c0-1.2-0.8-2.1-2.2-2.1H2.8
		v4.3H5.7z"/>
	<rect x="13.5" y="57.7" class="st0" width="2.7" height="14.9"/>
	<path class="st0" d="M20,57.7h5.3c2.7,0,4.6,1.4,4.6,3.8c0,1.4-0.7,2.6-1.8,3.2v0c1.6,0.5,2.4,2,2.4,3.5c0,3-2.4,4.3-5.1,4.3H20
		V57.7z M25.4,63.8c1.2,0,1.8-0.8,1.8-1.9S26.6,60,25.3,60h-2.6v3.8H25.4z M25.6,70.3c1.4,0,2.2-0.9,2.2-2.2c0-1.2-0.8-2.1-2.2-2.1
		h-2.9v4.3H25.6z"/>
	<polygon class="st0" points="33.5,57.7 36.2,57.7 36.2,70.3 42.7,70.3 42.7,72.6 33.5,72.6 	"/>
	<rect x="44.8" y="57.7" class="st0" width="2.7" height="14.9"/>
	<path class="st0" d="M58,57.4c4.4,0,7.7,3.3,7.7,7.6c0,4.4-3.3,7.8-7.7,7.8c-4.4,0-7.7-3.4-7.7-7.8C50.3,60.8,53.6,57.4,58,57.4
		 M58,70.4c2.7,0,4.9-2.3,4.9-5.3c0-2.9-2.2-5.1-4.9-5.1s-4.9,2.2-4.9,5.1C53.1,68.1,55.3,70.4,58,70.4"/>
	<polygon class="st0" points="71.4,60 66.5,60 66.5,57.7 79,57.7 79,60 74.1,60 74.1,72.6 71.4,72.6 	"/>
	<polygon class="st0" points="81,57.7 83.7,57.7 83.7,64 90.5,64 90.5,57.7 93.2,57.7 93.2,72.6 90.5,72.6 90.5,66.3 83.7,66.3 
		83.7,72.6 81,72.6 	"/>
	<path class="st0" d="M97,57.7h8.9V60h-6.2v3.9h5v2.3h-5v4h6.6v2.3H97V57.7z M98.5,53.8h2.8l1.6,2.9h-2.2L98.5,53.8z"/>
	<path class="st0" d="M115.7,57.4c4.4,0,7.7,3.3,7.7,7.6c0,1.8-0.7,3.4-1.6,4.7l1.7,1.5l-1.6,1.7l-1.7-1.6c-1.2,0.9-2.8,1.5-4.6,1.5
		c-4.4,0-7.7-3.4-7.7-7.8C108,60.8,111.3,57.4,115.7,57.4 M115.7,70.4c0.9,0,1.9-0.3,2.6-0.8l-1.7-1.6l1.6-1.7l1.6,1.6
		c0.5-0.8,0.8-1.8,0.8-2.9c0-3-2.2-5.1-4.9-5.1c-2.7,0-4.9,2.2-4.9,5.1C110.8,68.1,112.9,70.4,115.7,70.4"/>
	<path class="st0" d="M126.1,57.7h2.7v9.6c0,2,1.3,3.1,3.3,3.1c2,0,3.3-1.1,3.3-3.2v-9.5h2.7v9.6c0,3.3-2.4,5.6-6,5.6
		c-3.6,0-6-2.3-6-5.6V57.7z"/>
	<polygon class="st0" points="141.8,57.7 150.7,57.7 150.7,60 144.5,60 144.5,63.9 149.5,63.9 149.5,66.2 144.5,66.2 144.5,70.3 
		151,70.3 151,72.6 141.8,72.6 	"/>
</g>
</svg>
