<?xml version="1.0" encoding="utf-8"?>
<!-- Generator: Adobe Illustrator 23.0.0, SVG Export Plug-In . SVG Version: 6.00 Build 0)  -->
<svg version="1.1" id="Calque_1" xmlns="http://www.w3.org/2000/svg" xmlns:xlink="http://www.w3.org/1999/xlink" x="0px" y="0px"
	 viewBox="0 0 160 160" style="enable-background:new 0 0 160 160;" xml:space="preserve">
<style type="text/css">
	.st0{fill:#5E6776;}
</style>
<g>
	<path class="st0" d="M153.3,18.9h-108c-1.5,0-2.8,1.3-2.8,2.8v61.1c0,1.5,1.3,2.8,2.8,2.8l0,0c1.5,0,2.8-1.3,2.8-2.8V24.5h102.4V88
		H77c-1.5,0-2.8,1.3-2.8,2.8l0,0c0,1.5,1.3,2.8,2.8,2.8h76.4c1.5,0,2.8-1.3,2.8-2.8V21.7C156.1,20.2,155,18.9,153.3,18.9z"/>
	<circle class="st0" cx="19.8" cy="66.8" r="15"/>
	<circle class="st0" cx="131.4" cy="112.5" r="13.3"/>
	<circle class="st0" cx="81.7" cy="112.5" r="13.3"/>
	<path class="st0" d="M71.9,81.2l19.3-24.9c0.7-0.8,0.5-2-0.3-2.6c-0.8-0.7-2-0.5-2.6,0.3l-19.1,25c-1.8-0.7-3.9-0.3-5.4,1l-12.8,11
		l-26.2-5.3c-0.3,0-0.8-0.2-1.2-0.2c-1.2-0.2-2.3-0.3-3.6-0.3h-0.3c-8.6,0-15.6,5.9-15.6,13.3V141h31.4V99.5l15.6,3.1
		c0.3,0,0.7,0.2,1.2,0.2c1.3,0,2.6-0.5,3.6-1.3l14.8-12.8C73,86.7,73.5,83.5,71.9,81.2z"/>
	<path class="st0" d="M131.6,128.6h-0.3c-9.4,0-16.8,5.3-16.8,11.8v0.7h34.1v-0.7C148.5,133.9,141,128.6,131.6,128.6z"/>
	<path class="st0" d="M81.9,128.6h-0.3c-9.4,0-16.8,5.3-16.8,11.8v0.7h34.1v-0.7C98.7,133.9,91.1,128.6,81.9,128.6z"/>
	<path class="st0" d="M137,33.5H69.5c-1.5,0-2.8,1.3-2.8,2.8c0,1.5,1.3,2.8,2.8,2.8H137c1.5,0,2.8-1.3,2.8-2.8S138.7,33.5,137,33.5z
		"/>
	<path class="st0" d="M137,53.4h-34.2c-1.5,0-2.8,1.3-2.8,2.8s1.3,2.8,2.8,2.8h34.4c1.5,0,2.8-1.3,2.8-2.8
		C139.8,54.6,138.7,53.4,137,53.4z"/>
	<path class="st0" d="M137,74.5H94.7c-1.5,0-2.8,1.3-2.8,2.8s1.3,2.8,2.8,2.8h42.5c1.5,0,2.8-1.3,2.8-2.8
		C139.8,75.6,138.7,74.5,137,74.5z"/>
</g>
</svg>
