<?xml version="1.0" encoding="utf-8"?>
<!-- Generator: Adobe Illustrator 23.0.1, SVG Export Plug-In . SVG Version: 6.00 Build 0)  -->
<svg version="1.1" id="Calque_1" xmlns="http://www.w3.org/2000/svg" xmlns:xlink="http://www.w3.org/1999/xlink" x="0px" y="0px"
	 viewBox="0 0 160 160" style="enable-background:new 0 0 160 160;" xml:space="preserve">
<style type="text/css">
	.st0{fill:#5E6776;}
	.st1{fill:none;stroke:#5E6776;stroke-width:4;stroke-miterlimit:10;}
</style>
<g>
	<g>
		<path class="st0" d="M73.8,26.3c0.9,0,1.7,0.7,1.7,1.7v24.3c0,0.9-0.7,1.7-1.7,1.7H33.9c-0.9,0-1.7-0.7-1.7-1.7V28
			c0-0.9,0.7-1.7,1.7-1.7H73.8 M73.8,22.3H33.9c-3.1,0-5.7,2.5-5.7,5.7v24.3c0,3.1,2.5,5.7,5.7,5.7h39.9c3.1,0,5.7-2.5,5.7-5.7V28
			C79.5,24.8,76.9,22.3,73.8,22.3L73.8,22.3z"/>
	</g>
	<g>
		<line class="st1" x1="84.2" y1="29" x2="125.9" y2="29"/>
		<line class="st1" x1="84.2" y1="36.4" x2="129.9" y2="36.4"/>
		<line class="st1" x1="84.2" y1="43.8" x2="127.6" y2="43.8"/>
		<line class="st1" x1="84.2" y1="51.3" x2="131.8" y2="51.3"/>
	</g>
</g>
<g>
	<g>
		<path class="st0" d="M73.8,66.2c0.9,0,1.7,0.7,1.7,1.7v24.3c0,0.9-0.7,1.7-1.7,1.7H33.9c-0.9,0-1.7-0.7-1.7-1.7V67.9
			c0-0.9,0.7-1.7,1.7-1.7H73.8 M73.8,62.2H33.9c-3.1,0-5.7,2.5-5.7,5.7v24.3c0,3.1,2.5,5.7,5.7,5.7h39.9c3.1,0,5.7-2.5,5.7-5.7V67.9
			C79.5,64.7,76.9,62.2,73.8,62.2L73.8,62.2z"/>
	</g>
	<g>
		<line class="st1" x1="84.2" y1="68.9" x2="125.9" y2="68.9"/>
		<line class="st1" x1="84.2" y1="76.3" x2="129.9" y2="76.3"/>
		<line class="st1" x1="84.2" y1="83.7" x2="127.6" y2="83.7"/>
		<line class="st1" x1="84.2" y1="91.1" x2="131.8" y2="91.1"/>
	</g>
</g>
<g>
	<g>
		<path class="st0" d="M73.8,106.1c0.9,0,1.7,0.7,1.7,1.7V132c0,0.9-0.7,1.7-1.7,1.7H33.9c-0.9,0-1.7-0.7-1.7-1.7v-24.3
			c0-0.9,0.7-1.7,1.7-1.7H73.8 M73.8,102.1H33.9c-3.1,0-5.7,2.5-5.7,5.7V132c0,3.1,2.5,5.7,5.7,5.7h39.9c3.1,0,5.7-2.5,5.7-5.7
			v-24.3C79.5,104.6,76.9,102.1,73.8,102.1L73.8,102.1z"/>
	</g>
	<g>
		<line class="st1" x1="84.2" y1="108.7" x2="125.9" y2="108.7"/>
		<line class="st1" x1="84.2" y1="116.2" x2="129.9" y2="116.2"/>
		<line class="st1" x1="84.2" y1="123.6" x2="127.6" y2="123.6"/>
		<line class="st1" x1="84.2" y1="131" x2="131.8" y2="131"/>
	</g>
</g>
</svg>
