<?xml version="1.0" encoding="utf-8"?>
<!-- Generator: Adobe Illustrator 23.0.0, SVG Export Plug-In . SVG Version: 6.00 Build 0)  -->
<svg version="1.1" id="Calque_1" xmlns="http://www.w3.org/2000/svg" xmlns:xlink="http://www.w3.org/1999/xlink" x="0px" y="0px"
	 viewBox="0 0 160 160" style="enable-background:new 0 0 160 160;" xml:space="preserve">
<style type="text/css">
	.st0{fill:none;stroke:#5E6776;stroke-width:5;stroke-linecap:round;stroke-linejoin:round;}
</style>
<path class="st0" d="M62.1,103.3c-2.9,0.6-5.9,0.9-8.9,0.9c-23.6,0-42.8-19.2-42.8-42.8c0-23.6,19.2-42.8,42.8-42.8
	C76.8,18.7,96,37.9,96,61.5c0,4-0.6,7.9-1.6,11.6 M62.1,103.3c4,4,9.5,6.4,15.6,6.4c12.2,0,22.1-9.9,22.1-22.1
	c0-5.6-2.1-10.6-5.4-14.5 M94.4,73.1c-4.1-4.6-10-7.6-16.7-7.6c-12.2,0-22.1,9.9-22.1,22.1c0,6.1,2.5,11.7,6.5,15.7 M116.6,70.7
	c6.3,0,11.5-5.1,11.5-11.5c0-6.3-5.1-11.5-11.5-11.5c-6.3,0-11.5,5.1-11.5,11.5C105.2,65.5,110.3,70.7,116.6,70.7z M115.5,88.3
	c0,3.3,2.6,5.9,5.9,5.9c3.3,0,5.9-2.6,5.9-5.9c0-3.3-2.6-5.9-5.9-5.9C118.2,82.4,115.5,85,115.5,88.3z M82.6,128.8
	c-0.8,1.7-1.2,3.7-1.2,5.7c0,7.8,6.3,14.1,14.1,14.1c7.7,0,13.9-6.2,14.1-13.8 M102.6,122.2c-2.1-1.2-4.5-1.9-7.1-1.9
	c-2.6,0-5,0.7-7.1,1.9 M109.7,134.8c3.2-0.8,5.6-3.7,5.6-7.2c0-4.1-3.3-7.4-7.4-7.4c-2,0-3.9,0.8-5.2,2.1 M102.6,122.2
	c-1.4,1.4-2.2,3.2-2.2,5.3c0,4.1,3.3,7.4,7.4,7.4c0.6,0,1.3-0.1,1.8-0.2 M82.6,128.8c3.2-0.2,5.8-2.8,5.8-6.1c0-0.1,0-0.2,0-0.4
	 M88.4,122.3c-0.2-3.2-2.8-5.8-6.1-5.8c-3.4,0-6.1,2.7-6.1,6.1s2.7,6.1,6.1,6.1c0.1,0,0.2,0,0.3,0 M57.9,132.9
	c0,3.1,2.5,5.6,5.6,5.6c3.1,0,5.6-2.5,5.6-5.6s-2.5-5.6-5.6-5.6C60.4,127.4,57.9,129.9,57.9,132.9z M121.9,125.5
	c0,8.5,6.9,15.4,15.4,15.4c8.5,0,15.4-6.9,15.4-15.4c0-8.5-6.9-15.4-15.4-15.4C128.8,110.1,121.9,117,121.9,125.5z M39.2,121.6
	c0,2.2,1.8,4,4,4s4-1.8,4-4s-1.8-4-4-4S39.2,119.3,39.2,121.6z"/>
</svg>
