<?xml version="1.0" encoding="utf-8"?>
<!-- Generator: Adobe Illustrator 23.0.0, SVG Export Plug-In . SVG Version: 6.00 Build 0)  -->
<svg version="1.1" id="Calque_1" xmlns="http://www.w3.org/2000/svg" xmlns:xlink="http://www.w3.org/1999/xlink" x="0px" y="0px"
	 viewBox="0 0 160 160" style="enable-background:new 0 0 160 160;" xml:space="preserve">
<style type="text/css">
	.st0{fill:#5E6776;}
</style>
<path class="st0" d="M124.4,141.7c-12.3,0-22.8-8.8-24.8-21l-0.5-2.9h-9.8c-9.1,0-13.1,4-14.8,7.3c-0.1,0.2-0.3,0.4-0.5,0.5
	c-0.2,0.1-0.4,0.1-0.6,0.1c-0.4,0-0.9-0.2-1.1-0.7c-1.7-3.3-5.7-7.3-14.8-7.3H14.4c-0.7,0-1.3-0.6-1.3-1.3V38.4c0-0.6,0.4-1.2,1-1.3
	l43.3,0c4.1,0,8.3,1.7,11.8,4.9c0.1,0.1,0.3,0.4,0.5,0.7c0.3,0.4,0.6,0.8,1,1.3l2.6,3.1l2.6-3.1c0.4-0.4,0.7-0.9,1-1.3
	c0.2-0.3,0.4-0.6,0.5-0.7c3.5-3.1,7.7-4.9,11.8-4.9h43.1c0.7,0,1.3,0.6,1.3,1.3V93l1.9,1c8.6,4.3,14,13,14,22.5
	C149.7,130.4,138.3,141.7,124.4,141.7z M19.2,111.7h38.3c4,0,7.8,0.8,11.2,2.3V52.7c0-1.7-1.2-4.3-3.4-6.3c-2.2-2-5.2-3.3-7.7-3.3
	H19.2V111.7z M81.6,46.4c-2.2,2-3.4,4.6-3.4,6.3v61.4c3.4-1.6,7.2-2.3,11.2-2.3h10.3c2.4-10,9.7-19.9,24.8-20.5
	c1.1,0,2.1,0.1,3.2,0.2V43.1H89.4C86.9,43.1,83.9,44.4,81.6,46.4z M105.3,116.5c0,10.6,8.5,19.1,19.1,19.1
	c10.6,0,19.1-8.5,19.1-19.1c0-10.6-8.5-19.1-19.1-19.1C113.8,97.4,105.3,105.9,105.3,116.5z M127.5,108.7c0-1.7-1.4-3-3-3
	s-3,1.4-3,3s1.4,3,3,3S127.5,110.4,127.5,108.7z M124.4,127.4c1.6,0,3-1.3,3-3v-6.5c0-0.8-0.3-1.6-0.8-2.2c-0.6-0.6-1.3-0.9-2.2-0.9
	c-0.8,0-1.6,0.3-2.1,0.9c-0.6,0.6-0.9,1.3-0.9,2.2v6.4c0,0.8,0.3,1.6,0.9,2.2C122.8,127,123.6,127.4,124.4,127.4L124.4,127.4z"/>
</svg>
