<?xml version="1.0" encoding="utf-8"?>
<!-- Generator: Adobe Illustrator 23.0.0, SVG Export Plug-In . SVG Version: 6.00 Build 0)  -->
<svg version="1.1" id="Calque_1" xmlns="http://www.w3.org/2000/svg" xmlns:xlink="http://www.w3.org/1999/xlink" x="0px" y="0px"
	 viewBox="0 0 160 160" style="enable-background:new 0 0 160 160;" xml:space="preserve">
<style type="text/css">
	.st0{fill-rule:evenodd;clip-rule:evenodd;fill:#5E6776;}
</style>
<path class="st0" d="M57.7,9.5h48.4c5.1,0,6.7,3.9,6.7,6.7v52.1h2.4c2.4,0,4.6,1,6.2,2.7c1.6,1.6,2.5,3.9,2.5,6.3s-1,4.7-2.5,6.3
	c-0.3,0.4-0.7,0.7-1.1,1c1.4,1.5,2.2,3.4,2.2,5.6c0,2.3-1,4.2-2.6,5.8c-1.3,1.2-2.9,2.1-4.8,2.4c0.8,1.4,1.3,3,1.3,4.7
	c0,2.5-1,4.7-2.5,6.4c-1.7,1.8-3.9,2.7-6.4,2.7c-3,5.3-11.9,18.5-29,20.4c-0.5,0.1-0.5,1.5-1.6,3.1l-0.1,0.2l7,3.4l-6.8,14l-40.9-20
	c2.9-6,5.9-11.8,8.6-17.7l-5.3-33.5l0.1-1.2L51,53.3v-37C51,11.2,54.8,9.5,57.7,9.5L57.7,9.5z M72.6,51.2l8.9,13.6l15.1-26.6l5.2,3
	L84.2,72.1l-5.2,0.2L67.5,54.5L72.6,51.2L72.6,51.2z M102.2,112.3c-11.9,0-23.9,0-35.8,0c-0.6,0.9-1.2,1.7-1.8,2.7l-3.7-2.6
	c2.3-3.3,3.9-6.5,4.5-9.7c0.6-3.2,0.3-6.4-1-9.6c-1-2.4-2.4-4.2-4.1-5.8c-1.8-1.6-4-3-6.3-4.5l-3.2-2l3.2-1.9
	c1.4-0.8,4.9-9.2,5.6-11.6c1.1-3.4,1.7-7,1-9.6c-0.3-1.4-0.9-2.6-1.8-3.7c-0.8-0.9-1.7-1.4-2.5-1.8l-12.5,30l3.5,22.3l1.8,11.2
	l-0.2,1.3l-2.1,4.5L72.7,134c0.1-0.2,0.2-0.5,0.4-0.7c1.6-2.5,3.2-5,4.9-5.1C91.1,126.7,98.8,117.7,102.2,112.3L102.2,112.3z
	 M70.2,98.6h21.6c0.4-0.7,0.8-1.3,1.4-1.9c0.6-0.6,1.2-1.1,1.9-1.5c-1.1-1.4-1.8-3-1.8-4.9c0-2.3,1-4.4,2.6-5.9
	c0.3-0.3,0.7-0.6,1.1-0.9c-1.4-1.6-2.3-3.7-2.3-6c0-2.4,1-4.7,2.5-6.3c1.6-1.7,3.8-2.7,6.2-2.7h1.8V17.1H58.5v31
	c7.8,3.7,7.7,13.3,5.4,20.5c-1.4,4.5-3.8,8.9-5.6,11.5c1.8,1.1,3.4,2.3,5,3.7c2.2,2,4,4.3,5.3,7.4C69.6,93.7,70.1,96.2,70.2,98.6
	L70.2,98.6z M114.7,86.5h-12.3c-1.2,0-2.3,0.2-3.2,1.1c-0.7,0.7-1.2,1.7-1.2,2.8c0,1.1,0.5,2.1,1.2,2.8c0.4,0.4,1,0.7,1.6,1
	c4.4,0,8.7,0.2,13.1,0.2c1.1,0,2.2-0.5,2.9-1.2c0.7-0.7,1.2-1.7,1.2-2.8c0-1.1-0.5-2.1-1.2-2.8C116.2,87,115.5,86.6,114.7,86.5z
	 M115.2,72.9h-11.7c-1.1,0-2.1,0.5-2.9,1.3c-0.8,0.8-1.3,2-1.3,3.2c0,1.3,0.5,2.6,1.3,3.4c0.7,0.8,1.8,1.3,2.9,1.3h11.7
	c1.1,0,2.1-0.5,2.9-1.3c0.8-0.8,1.3-2.1,1.3-3.4c0-1.3-0.5-2.4-1.3-3.2C117.4,73.4,116.4,72.9,115.2,72.9z M107.6,98.6h-8.1
	c-1.1,0-2.2,0.5-3,1.3c-0.8,0.8-1.3,2-1.3,3.3c0,1.3,0.5,2.4,1.3,3.3c0.8,0.8,1.8,1.3,3,1.3h8.1c1.1,0,2.2-0.5,3-1.3
	c0.8-0.8,1.3-2,1.3-3.3c0-1.3-0.5-2.4-1.3-3.3C109.8,99.1,108.8,98.6,107.6,98.6z"/>
</svg>
