<?xml version="1.0" encoding="utf-8"?>
<!-- Generator: Adobe Illustrator 23.0.0, SVG Export Plug-In . SVG Version: 6.00 Build 0)  -->
<svg version="1.1" id="Calque_1" xmlns="http://www.w3.org/2000/svg" xmlns:xlink="http://www.w3.org/1999/xlink" x="0px" y="0px"
	 viewBox="0 0 160 160" style="enable-background:new 0 0 160 160;" xml:space="preserve">
<style type="text/css">
	.st0{fill:#5E6776;}
</style>
<g>
	<path class="st0" d="M80,47c20.5,0,28,15.5,28,26c0,10-5,18.8-9.7,27.4c-2.7,4.8-5.4,9.8-7.3,14.9H69c-1.8-5.2-4.6-10.1-7.3-15
		C57,91.7,52,82.8,52,72.9c0-5.9,2.4-12.3,6.4-16.9C63.6,50,70.8,47,80,47 M87.7,132.4c-1.6,4.5-4.2,9-7.6,9l-0.1,0
		c-3.4-0.1-6.1-4.5-7.8-9H87.7 M80,13.2c-1.9,0-3.1,1.2-3.1,3.1V30c0,1.8,1.2,3,3.1,3c1.9,0,3.1-1.2,3.1-3.1V16.3
		C83.1,14.5,81.9,13.2,80,13.2L80,13.2z M42.6,24.9c-0.7,0-1.3,0.2-2,0.7c-1.5,1.1-1.7,2.8-0.6,4.3l8.4,10.8
		c0.6,0.9,1.5,1.3,2.4,1.3c0.7,0,1.3-0.2,2-0.7c1.5-1.1,1.7-2.8,0.6-4.3l-8.4-10.8C44.3,25.3,43.4,24.9,42.6,24.9L42.6,24.9z
		 M117.4,24.9c-0.9,0-1.7,0.4-2.4,1.3l-8.4,10.8c-1.1,1.4-0.8,3.1,0.6,4.3c0.6,0.5,1.3,0.7,2,0.7c0.9,0,1.7-0.4,2.4-1.3l8.4-10.8
		c1.1-1.5,0.9-3.2-0.6-4.3C118.8,25.1,118.1,24.9,117.4,24.9L117.4,24.9z M80,41c-24.2,0-34,18.8-34,31.9
		c0,19.2,15.1,33.5,18.5,48.4h30.8c3.5-14.9,18.6-29.1,18.6-48.3C114,59.7,104.2,41,80,41L80,41z M138.5,57.6c-0.3,0-0.6,0-0.9,0.1
		l-13.2,3.3c-1.8,0.5-2.7,1.9-2.3,3.8c0.4,1.5,1.4,2.4,2.8,2.4c0.3,0,0.6,0,0.9-0.1l13.2-3.3c1.9-0.5,2.7-1.9,2.3-3.8
		C140.9,58.5,139.9,57.6,138.5,57.6L138.5,57.6z M21.5,57.6c-1.4,0-2.5,0.9-2.9,2.4c-0.5,1.8,0.5,3.3,2.3,3.8l13.2,3.3
		c0.3,0.1,0.6,0.1,0.9,0.1c1.4,0,2.5-0.9,2.8-2.4c0.5-1.8-0.5-3.3-2.3-3.8l-13.2-3.3C22.1,57.7,21.8,57.6,21.5,57.6L21.5,57.6z
		 M120.9,90.1c-1.1,0-2.1,0.7-2.6,1.9c-0.8,1.7-0.2,3.3,1.6,4.1l12.5,5.6c0.5,0.2,1,0.3,1.4,0.3c1.1,0,2.1-0.7,2.6-1.9
		c0.7-1.7,0.1-3.3-1.6-4.1l-12.5-5.6C121.9,90.2,121.4,90.1,120.9,90.1L120.9,90.1z M39.1,90.2c-0.5,0-1,0.1-1.4,0.3l-12.5,5.6
		c-1.7,0.8-2.4,2.4-1.6,4.1c0.5,1.2,1.5,1.9,2.7,1.9c0.4,0,0.9-0.1,1.4-0.3l12.5-5.7c1.7-0.8,2.4-2.4,1.6-4.1
		C41.2,90.8,40.2,90.2,39.1,90.2L39.1,90.2z M95.5,126.4H64.5c0,0,3.1,20.8,15.5,21c0.1,0,0.1,0,0.2,0
		C92.4,147.5,95.5,126.4,95.5,126.4L95.5,126.4z"/>
</g>
</svg>
